<?xml version="1.0" encoding="UTF-8" standalone="no"?>
<!-- Created with Inkscape (http://www.inkscape.org/) -->

<svg
   xmlns:dc="http://purl.org/dc/elements/1.1/"
   xmlns:cc="http://creativecommons.org/ns#"
   xmlns:rdf="http://www.w3.org/1999/02/22-rdf-syntax-ns#"
   xmlns:svg="http://www.w3.org/2000/svg"
   xmlns="http://www.w3.org/2000/svg"
   xmlns:sodipodi="http://sodipodi.sourceforge.net/DTD/sodipodi-0.dtd"
   xmlns:inkscape="http://www.inkscape.org/namespaces/inkscape"
   version="1.1"
   width="1171.9182"
   height="1500.653"
   viewBox="0 0 1171.918 1500.653"
   id="Layer_1"
   xml:space="preserve"
   style="overflow:visible"
   inkscape:version="0.91 r13725"
   sodipodi:docname="Dih4_cycle_graph.svg"><metadata
     id="metadata60"><rdf:RDF><cc:Work
         rdf:about=""><dc:format>image/svg+xml</dc:format><dc:type
           rdf:resource="http://purl.org/dc/dcmitype/StillImage" /><dc:title></dc:title></cc:Work></rdf:RDF></metadata><sodipodi:namedview
     pagecolor="#ffffff"
     bordercolor="#666666"
     borderopacity="1"
     objecttolerance="10"
     gridtolerance="10"
     guidetolerance="10"
     inkscape:pageopacity="0"
     inkscape:pageshadow="2"
     inkscape:window-width="1869"
     inkscape:window-height="1056"
     id="namedview58"
     showgrid="false"
     inkscape:zoom="0.46846273"
     inkscape:cx="474.40479"
     inkscape:cy="776.11414"
     inkscape:window-x="51"
     inkscape:window-y="24"
     inkscape:window-maximized="1"
     inkscape:current-layer="Layer_1"
     fit-margin-top="0"
     fit-margin-left="0"
     fit-margin-right="0"
     fit-margin-bottom="0" /><defs
     id="defs3470" /><path
     d="m 581.90026,792.96235 -286.114,-286.11396 286.114,-278.16638 286.114,280.81558 z"
     id="path5708"
     style="color:#000000;display:inline;overflow:visible;visibility:visible;fill:none;stroke:#000000;stroke-width:24;stroke-linecap:butt;stroke-linejoin:miter;stroke-miterlimit:4;stroke-dasharray:none;stroke-dashoffset:0;stroke-opacity:1;marker:none;enable-background:accumulate"
     inkscape:connector-curvature="0" /><path
     d="M 433.91586,1162.4365 584.75226,789.20943"
     id="path5604-8-5-7"
     style="display:inline;overflow:visible;fill:#000130;fill-opacity:1;stroke:#000000;stroke-width:24;stroke-linecap:butt;stroke-linejoin:miter;stroke-miterlimit:4.00129986;stroke-dasharray:none;stroke-opacity:1"
     inkscape:connector-curvature="0" /><path
     d="M 732.93946,1156.6261 584.75226,796.64503"
     id="path5604-8-5"
     style="display:inline;overflow:visible;fill:#000130;fill-opacity:1;stroke:#000000;stroke-width:24;stroke-linecap:butt;stroke-linejoin:miter;stroke-miterlimit:4.00129986;stroke-dasharray:none;stroke-opacity:1"
     inkscape:connector-curvature="0" /><path
     d="M 1030.8886,1161.3997 586.87706,800.89391"
     id="path5604-8"
     style="display:inline;overflow:visible;fill:#000130;fill-opacity:1;stroke:#000000;stroke-width:24;stroke-linecap:butt;stroke-linejoin:miter;stroke-miterlimit:4.00129986;stroke-dasharray:none;stroke-opacity:1"
     inkscape:connector-curvature="0" /><path
     d="M 140.20346,1161.3997 581.56586,800.89395"
     id="path5604"
     style="fill:#000130;fill-opacity:1;stroke:#000000;stroke-width:24;stroke-linecap:butt;stroke-linejoin:miter;stroke-miterlimit:4.00129986;stroke-dasharray:none;stroke-opacity:1"
     inkscape:connector-curvature="0" /><g
     transform="matrix(-2.8,0,0,2.8,3441.349,648.49199)"
     id="g5309-9-5-7"
     style="display:inline;overflow:visible"><path
       d="m 1222.9649,193.46344 a 29.378019,28.538647 0 1 1 -58.756,0 29.378019,28.538647 0 1 1 58.756,0 z"
       transform="matrix(1.2061082,0,0,1.2453032,-261.08349,-56.973405)"
       id="path5304-4-5-1"
       style="fill:#000000;fill-opacity:1;stroke:none"
       inkscape:connector-curvature="0" /><path
       d="m 1159.984,159.79758 37.055,0 0,9.96652 -23.2552,0 0,9.19988 15.3331,0 0,9.96652 -15.3331,0 0,19.1664 -13.7998,0 0,-48.29932 z"
       id="path3346-1-8-1-1"
       style="display:inline;overflow:visible;fill:#ffffff;fill-opacity:1"
       inkscape:connector-curvature="0" /></g><g
     transform="matrix(0,2.8,2.8,0,-77.879826,-2136.2878)"
     id="g5309-9-5-7-5"
     style="display:inline;overflow:visible"><path
       d="m 1222.9649,193.46344 a 29.378019,28.538647 0 1 1 -58.756,0 29.378019,28.538647 0 1 1 58.756,0 z"
       transform="matrix(1.2061082,0,0,1.2453032,-261.08349,-56.973405)"
       id="path5304-4-5-1-2"
       style="fill:#000000;fill-opacity:1;stroke:none"
       inkscape:connector-curvature="0" /><path
       d="m 1159.984,159.79758 37.055,0 0,9.96652 -23.2552,0 0,9.19988 15.3331,0 0,9.96652 -15.3331,0 0,19.1664 -13.7998,0 0,-48.29932 z"
       id="path3346-1-8-1-1-7"
       style="display:inline;overflow:visible;fill:#ffffff;fill-opacity:1"
       inkscape:connector-curvature="0" /></g><g
     transform="matrix(2.8,0,0,-2.8,-2567.0046,1678.5965)"
     id="g5309-9-5-7-5-6"
     style="display:inline;overflow:visible"><path
       d="m 1222.9649,193.46344 a 29.378019,28.538647 0 1 1 -58.756,0 29.378019,28.538647 0 1 1 58.756,0 z"
       transform="matrix(1.2061082,0,0,1.2453032,-261.08349,-56.973405)"
       id="path5304-4-5-1-2-1"
       style="fill:#000000;fill-opacity:1;stroke:none"
       inkscape:connector-curvature="0" /><path
       d="m 1159.984,159.79758 37.055,0 0,9.96652 -23.2552,0 0,9.19988 15.3331,0 0,9.96652 -15.3331,0 0,19.1664 -13.7998,0 0,-48.29932 z"
       id="path3346-1-8-1-1-7-4"
       style="display:inline;overflow:visible;fill:#ffffff;fill-opacity:1"
       inkscape:connector-curvature="0" /></g><g
     transform="matrix(0,-2.8,-2.8,0,1543.5355,4463.3764)"
     id="g5309-9-5-7-5-6-2"
     style="display:inline;overflow:visible"><path
       d="m 1222.9649,193.46344 a 29.378019,28.538647 0 1 1 -58.756,0 29.378019,28.538647 0 1 1 58.756,0 z"
       transform="matrix(1.2061082,0,0,1.2453032,-261.08349,-56.973405)"
       id="path5304-4-5-1-2-1-3"
       style="fill:#000000;fill-opacity:1;stroke:none"
       inkscape:connector-curvature="0" /><path
       d="m 1159.984,159.79758 37.055,0 0,9.96652 -23.2552,0 0,9.19988 15.3331,0 0,9.96652 -15.3331,0 0,19.1664 -13.7998,0 0,-48.29932 z"
       id="path3346-1-8-1-1-7-4-2"
       style="display:inline;overflow:visible;fill:#ffffff;fill-opacity:1"
       inkscape:connector-curvature="0" /></g><g
     transform="matrix(0,-2.8,2.8,0,346.69986,3808.9733)"
     id="g5526"
     style="display:inline;overflow:visible"><path
       d="m 1222.9649,193.46344 a 29.378019,28.538647 0 1 1 -58.756,0 29.378019,28.538647 0 1 1 58.756,0 z"
       transform="matrix(1.2061082,0,0,1.2453032,-261.08349,-56.973405)"
       id="path5528"
       style="fill:#000000;fill-opacity:1;stroke:none"
       inkscape:connector-curvature="0" /><path
       d="m 1159.984,159.79758 37.055,0 0,9.96652 -23.2552,0 0,9.19988 15.3331,0 0,9.96652 -15.3331,0 0,19.1664 -13.7998,0 0,-48.29932 z"
       id="path5530"
       style="display:inline;overflow:visible;fill:#ffffff;fill-opacity:1"
       inkscape:connector-curvature="0" /></g><g
     transform="matrix(0,2.8,-2.8,0,818.29946,-2790.691)"
     id="g5532"
     style="display:inline;overflow:visible"><path
       d="m 1222.9649,193.46344 a 29.378019,28.538647 0 1 1 -58.756,0 29.378019,28.538647 0 1 1 58.756,0 z"
       transform="matrix(1.2061082,0,0,1.2453032,-261.08349,-56.973405)"
       id="path5534"
       style="fill:#000000;fill-opacity:1;stroke:none"
       inkscape:connector-curvature="0" /><path
       d="m 1159.984,159.79758 37.055,0 0,9.96652 -23.2552,0 0,9.19988 15.3331,0 0,9.96652 -15.3331,0 0,19.1664 -13.7998,0 0,-48.29932 z"
       id="path5536"
       style="display:inline;overflow:visible;fill:#ffffff;fill-opacity:1"
       inkscape:connector-curvature="0" /></g><g
     transform="matrix(4.2,0,0,4.2,-4367.2487,15.815154)"
     id="g5670"
     style="display:inline;overflow:visible"><path
       d="m 1222.9649,193.46344 a 29.378019,28.538647 0 1 1 -58.756,0 29.378019,28.538647 0 1 1 58.756,0 z"
       transform="matrix(1.2061082,0,0,1.2453032,-261.08349,-56.973405)"
       id="path5672"
       style="fill:#000000;fill-opacity:1;stroke:none"
       inkscape:connector-curvature="0" /><path
       d="m 1159.984,159.79758 37.055,0 0,9.96652 -23.2552,0 0,9.19988 15.3331,0 0,9.96652 -15.3331,0 0,19.1664 -13.7998,0 0,-48.29932 z"
       id="path5674"
       style="display:inline;overflow:visible;fill:#ffffff;fill-opacity:1"
       inkscape:connector-curvature="0" /></g><g
     transform="matrix(-2.8,0,0,-2.8,3882.3318,744.94087)"
     id="g5676"
     style="display:inline;overflow:visible"><path
       d="m 1222.9649,193.46344 a 29.378019,28.538647 0 1 1 -58.756,0 29.378019,28.538647 0 1 1 58.756,0 z"
       transform="matrix(1.2061082,0,0,1.2453032,-261.08349,-56.973405)"
       id="path5678"
       style="fill:#000000;fill-opacity:1;stroke:none"
       inkscape:connector-curvature="0" /><path
       d="m 1159.984,159.79758 37.055,0 0,9.96652 -23.2552,0 0,9.19988 15.3331,0 0,9.96652 -15.3331,0 0,19.1664 -13.7998,0 0,-48.29932 z"
       id="path5680"
       style="display:inline;overflow:visible;fill:#ffffff;fill-opacity:1"
       inkscape:connector-curvature="0" /></g><g
     style="font-style:normal;font-variant:normal;font-weight:normal;font-stretch:normal;font-size:1.14331996px;line-height:125%;font-family:'Times New Roman';text-align:start;letter-spacing:0px;word-spacing:0px;text-anchor:start;display:inline;fill:#000000;fill-opacity:1;fill-rule:evenodd;stroke:none"
     id="text7053-0"
     transform="matrix(112.82446,0,0,112.82447,42.429567,-228.96128)"><path
       d="m 0.78825435,13.77049 c 0.049499,-0.06885 0.10290601,-0.103278 0.16022118,-0.103279 0.0524763,10e-7 0.0982537,0.02242 0.13733247,0.06727 0.039078,0.04485 0.058617,0.106163 0.058617,0.183947 -6e-7,0.09081 -0.030147,0.163943 -0.090439,0.219397 -0.051733,0.04764 -0.10941964,0.07146 -0.17306117,0.07146 -0.0297742,0 -0.0600134,-0.0054 -0.0907176,-0.01619 -0.0307046,-0.01079 -0.0620602,-0.02698 -0.0940671,-0.04857 l 0,-0.52979 c -8e-8,-0.05806 -0.001396,-0.09379 -0.004187,-0.107187 -0.002791,-0.0134 -0.007164,-0.02252 -0.0131192,-0.02736 -0.005955,-0.0048 -0.0133983,-0.0073 -0.0223305,-0.0073 -0.0104209,1e-6 -0.023447,0.003 -0.0390783,0.0089 l -0.007816,-0.01954 0.15352204,-0.06253 0.0251218,0 z m 0,0.03573 0,0.305928 c 0.0189807,0.01861 0.0386129,0.03266 0.0588966,0.04215 0.0202833,0.0095 0.041032,0.01424 0.0622462,0.01424 0.0338676,0 0.0654093,-0.01861 0.0946254,-0.05583 0.029215,-0.03722 0.043823,-0.09137 0.043824,-0.162454 -5e-7,-0.0655 -0.014608,-0.115839 -0.043824,-0.15101 -0.0292161,-0.03517 -0.0624326,-0.05275 -0.0996498,-0.05276 -0.0197255,10e-7 -0.0394508,0.005 -0.0591758,0.01507 -0.0148872,0.0074 -0.0338681,0.02233 -0.0569427,0.04466 z"
       id="path7642-9"
       inkscape:connector-curvature="0" /></g><g
     style="font-style:normal;font-variant:normal;font-weight:normal;font-stretch:normal;font-size:1.14331996px;line-height:125%;font-family:'Times New Roman';text-align:start;letter-spacing:0px;word-spacing:0px;text-anchor:start;fill:#000000;fill-opacity:1;fill-rule:evenodd;stroke:none"
     id="text7078-3"
     transform="matrix(112.82446,0,0,112.82447,-25.108574,-441.8469)"><path
       d="m 5.2130741,9.0688944 c -3.723e-4,0.075924 0.01805,0.1354717 0.055268,0.1786438 0.037217,0.043172 0.080948,0.064758 0.1311916,0.064758 0.033495,0 0.062618,-0.00921 0.087368,-0.027634 0.024749,-0.018423 0.045498,-0.049964 0.062246,-0.094625 l 0.017306,0.011165 c -0.00782,0.050988 -0.030519,0.097417 -0.068108,0.1392864 -0.03759,0.04187 -0.08467,0.062805 -0.1412403,0.062805 -0.061409,0 -0.1139786,-0.023912 -0.1577089,-0.071737 -0.043731,-0.047824 -0.065596,-0.1121174 -0.065596,-0.1928795 -1e-7,-0.087461 0.022423,-0.1556616 0.067271,-0.204603 0.044847,-0.04894 0.1011383,-0.073411 0.1688743,-0.073411 0.057315,5e-7 0.1043946,0.018888 0.1412402,0.056664 0.036845,0.037776 0.055268,0.088299 0.055268,0.1515681 z m 0,-0.032379 0.236703,0 c -0.00186,-0.032751 -0.00577,-0.055826 -0.011724,-0.069225 -0.0093,-0.020841 -0.023168,-0.037217 -0.04159,-0.049127 -0.018423,-0.011909 -0.037683,-0.017864 -0.05778,-0.017864 -0.030891,5e-7 -0.058525,0.012003 -0.082902,0.036008 -0.024378,0.024006 -0.038613,0.057408 -0.042707,0.100208 z"
       id="path7620-6"
       inkscape:connector-curvature="0" /></g><g
     style="font-style:normal;font-variant:normal;font-weight:normal;font-stretch:normal;font-size:1.14331996px;line-height:125%;font-family:'Times New Roman';text-align:start;letter-spacing:0px;word-spacing:0px;text-anchor:start;fill:#000000;fill-opacity:1;fill-rule:evenodd;stroke:none"
     id="text7082-0"
     transform="matrix(112.82446,0,0,112.82447,-299.12924,-253.4191)"><path
       d="m 5.4026037,5.6116985 c -0.052477,0.040567 -0.085414,0.064014 -0.098812,0.070341 -0.020098,0.0093 -0.041498,0.013956 -0.0642,0.013956 -0.035357,0 -0.064479,-0.012096 -0.087368,-0.036287 -0.022889,-0.024191 -0.034333,-0.056012 -0.034333,-0.095463 0,-0.024936 0.00558,-0.046522 0.016748,-0.064758 0.015259,-0.025308 0.041777,-0.049127 0.079552,-0.071458 0.037775,-0.02233 0.10058,-0.049499 0.1884134,-0.081506 l 0,-0.020097 c -3e-7,-0.050987 -0.0081,-0.085972 -0.024284,-0.1049532 -0.01619,-0.01898 -0.03973,-0.028471 -0.07062,-0.028471 -0.023447,5e-7 -0.042056,0.00633 -0.055826,0.018981 -0.014143,0.012654 -0.021214,0.027169 -0.021214,0.043545 l 0.00112,0.032379 c -1e-7,0.01712 -0.00437,0.030333 -0.013119,0.039637 -0.00875,0.0093 -0.020191,0.013957 -0.034333,0.013957 -0.013771,3e-7 -0.025029,-0.00484 -0.033775,-0.014515 -0.00875,-0.00968 -0.013119,-0.022888 -0.013119,-0.039637 -1e-7,-0.032007 0.016376,-0.061408 0.049127,-0.088205 0.032751,-0.026796 0.078715,-0.040194 0.1378907,-0.040195 0.045405,6e-7 0.082623,0.00763 0.1116524,0.022889 0.021958,0.011538 0.038148,0.029588 0.048569,0.054151 0.0067,0.016004 0.010048,0.048755 0.010049,0.098254 l 0,0.1736194 c -4e-7,0.048755 9.3e-4,0.078622 0.00279,0.089601 0.00186,0.010979 0.00493,0.01833 0.00921,0.022051 0.00428,0.00372 0.00921,0.00558 0.014794,0.00558 0.00595,0 0.011165,-0.0013 0.015631,-0.00391 0.00782,-0.00484 0.022888,-0.018422 0.045219,-0.040753 l 0,0.031263 c -0.041684,0.055826 -0.081507,0.083739 -0.119468,0.083739 -0.018237,-10e-8 -0.032752,-0.00633 -0.043544,-0.018981 -0.010793,-0.012654 -0.016376,-0.03424 -0.016748,-0.064758 z m 0,-0.036287 0,-0.1948334 c -0.056199,0.022331 -0.092486,0.038148 -0.1088611,0.047452 -0.029402,0.016376 -0.05043,0.033496 -0.063084,0.05136 -0.012654,0.017865 -0.018981,0.037404 -0.018981,0.058618 -10e-8,0.026797 0.008,0.049034 0.024005,0.066712 0.016003,0.017678 0.034426,0.026517 0.055268,0.026517 0.028285,1e-7 0.065503,-0.018609 0.1116524,-0.055826 z"
       id="path7617-6"
       inkscape:connector-curvature="0" /></g><g
     style="font-style:normal;font-variant:normal;font-weight:normal;font-stretch:normal;font-size:1.14331996px;line-height:125%;font-family:'Times New Roman';text-align:start;letter-spacing:0px;word-spacing:0px;text-anchor:start;fill:#000000;fill-opacity:1;fill-rule:evenodd;stroke:none"
     id="text7086-2"
     transform="matrix(112.82446,0,0,112.82447,-451.01305,-532.92337)"><path
       d="m 9.1825958,5.6116985 c -0.052477,0.040567 -0.085414,0.064014 -0.098812,0.070341 -0.020098,0.0093 -0.041498,0.013956 -0.0642,0.013956 -0.035357,0 -0.064479,-0.012096 -0.087368,-0.036287 -0.022889,-0.024191 -0.034333,-0.056012 -0.034333,-0.095463 0,-0.024936 0.00558,-0.046522 0.016748,-0.064758 0.015259,-0.025308 0.041776,-0.049127 0.079552,-0.071458 0.037776,-0.02233 0.10058,-0.049499 0.1884134,-0.081506 l 0,-0.020097 c -3e-7,-0.050987 -0.0081,-0.085972 -0.024284,-0.1049532 -0.01619,-0.01898 -0.03973,-0.028471 -0.07062,-0.028471 -0.023447,5e-7 -0.042056,0.00633 -0.055826,0.018981 -0.014143,0.012654 -0.021214,0.027169 -0.021214,0.043545 l 0.00112,0.032379 c -2e-7,0.01712 -0.00437,0.030333 -0.013119,0.039637 -0.00875,0.0093 -0.020191,0.013957 -0.034333,0.013957 -0.013771,3e-7 -0.025029,-0.00484 -0.033775,-0.014515 -0.00875,-0.00968 -0.013119,-0.022888 -0.013119,-0.039637 -10e-8,-0.032007 0.016376,-0.061408 0.049127,-0.088205 0.032751,-0.026796 0.078715,-0.040194 0.1378907,-0.040195 0.045405,6e-7 0.082622,0.00763 0.1116524,0.022889 0.021958,0.011538 0.038148,0.029588 0.048569,0.054151 0.0067,0.016004 0.010048,0.048755 0.010049,0.098254 l 0,0.1736194 c -4e-7,0.048755 9.3e-4,0.078622 0.00279,0.089601 0.00186,0.010979 0.00493,0.01833 0.00921,0.022051 0.00428,0.00372 0.00921,0.00558 0.014794,0.00558 0.00595,0 0.011165,-0.0013 0.015631,-0.00391 0.00782,-0.00484 0.022888,-0.018422 0.045219,-0.040753 l 0,0.031263 c -0.041684,0.055826 -0.081507,0.083739 -0.119468,0.083739 -0.018237,-10e-8 -0.032752,-0.00633 -0.043544,-0.018981 -0.010793,-0.012654 -0.016376,-0.03424 -0.016748,-0.064758 z m 0,-0.036287 0,-0.1948334 c -0.056199,0.022331 -0.092486,0.038148 -0.1088611,0.047452 -0.029402,0.016376 -0.05043,0.033496 -0.063084,0.05136 -0.012654,0.017865 -0.018981,0.037404 -0.018981,0.058618 -10e-8,0.026797 0.008,0.049034 0.024005,0.066712 0.016003,0.017678 0.034426,0.026517 0.055268,0.026517 0.028285,1e-7 0.065502,-0.018609 0.1116524,-0.055826 z"
       id="path7612-6"
       inkscape:connector-curvature="0" /><path
       d="m 9.6850316,5.2298473 -0.034054,0.084856 -0.2757814,0 0,-0.01619 c 0.091927,-0.071457 0.1529636,-0.1297023 0.1831099,-0.174736 0.018609,-0.02754 0.027913,-0.054151 0.027913,-0.079831 -2e-7,-0.022702 -0.00772,-0.041776 -0.023168,-0.057222 -0.015445,-0.015445 -0.034892,-0.023167 -0.058338,-0.023168 -0.021214,7e-7 -0.039823,0.00549 -0.055826,0.016469 -0.016004,0.01098 -0.028099,0.027449 -0.036287,0.049406 l -0.025122,0 c 0.00521,-0.036472 0.019632,-0.065037 0.043265,-0.085693 0.023633,-0.020655 0.054244,-0.030983 0.091834,-0.030984 0.03945,8e-7 0.07155,0.010794 0.0963,0.032379 0.024749,0.021587 0.037124,0.045778 0.037124,0.072574 -2e-7,0.024564 -0.00893,0.050802 -0.026796,0.078715 -0.027913,0.043545 -0.082809,0.098441 -0.1646873,0.1646873 l 0.1038367,0 c 0.032379,4e-7 0.053872,-0.00223 0.064479,-0.0067 0.010607,-0.00447 0.019632,-0.012653 0.027076,-0.024563 z"
       id="path7614-1"
       inkscape:connector-curvature="0" /></g><g
     style="font-style:normal;font-variant:normal;font-weight:normal;font-stretch:normal;font-size:1.14331996px;line-height:125%;font-family:'Times New Roman';text-align:start;letter-spacing:0px;word-spacing:0px;text-anchor:start;fill:#000000;fill-opacity:1;fill-rule:evenodd;stroke:none"
     id="text7090-8"
     transform="matrix(112.82446,0,0,112.82447,-172.48751,-671.00617)"><path
       d="m 9.1825958,9.3189953 c -0.052477,0.040567 -0.085414,0.064014 -0.098812,0.070341 -0.020098,0.0093 -0.041498,0.013957 -0.0642,0.013957 -0.035357,0 -0.064479,-0.012096 -0.087368,-0.036287 -0.022889,-0.024191 -0.034333,-0.056012 -0.034333,-0.095463 0,-0.024936 0.00558,-0.046522 0.016748,-0.064758 0.015259,-0.025308 0.041776,-0.049127 0.079552,-0.071458 0.037776,-0.02233 0.10058,-0.049499 0.1884134,-0.081506 l 0,-0.020097 c -3e-7,-0.050988 -0.0081,-0.085972 -0.024284,-0.1049533 -0.01619,-0.01898 -0.03973,-0.028471 -0.07062,-0.028471 -0.023447,5e-7 -0.042056,0.00633 -0.055826,0.018981 -0.014143,0.012654 -0.021214,0.027169 -0.021214,0.043544 l 0.00112,0.032379 c -2e-7,0.01712 -0.00437,0.030333 -0.013119,0.039637 -0.00875,0.0093 -0.020191,0.013957 -0.034333,0.013956 -0.013771,4e-7 -0.025029,-0.00484 -0.033775,-0.014515 -0.00875,-0.00968 -0.013119,-0.022888 -0.013119,-0.039637 -10e-8,-0.032007 0.016376,-0.061408 0.049127,-0.088205 0.032751,-0.026796 0.078715,-0.040194 0.1378907,-0.040195 0.045405,5e-7 0.082622,0.00763 0.1116524,0.022889 0.021958,0.011538 0.038148,0.029588 0.048569,0.054151 0.0067,0.016004 0.010048,0.048755 0.010049,0.098254 l 0,0.1736195 c -4e-7,0.048755 9.3e-4,0.078622 0.00279,0.089601 0.00186,0.010979 0.00493,0.01833 0.00921,0.022051 0.00428,0.00372 0.00921,0.00558 0.014794,0.00558 0.00595,10e-8 0.011165,-0.0013 0.015631,-0.00391 0.00782,-0.00484 0.022888,-0.018423 0.045219,-0.040753 l 0,0.031263 c -0.041684,0.055826 -0.081507,0.083739 -0.119468,0.083739 -0.018237,0 -0.032752,-0.00633 -0.043544,-0.018981 -0.010793,-0.012654 -0.016376,-0.03424 -0.016748,-0.064758 z m 0,-0.036287 0,-0.1948334 c -0.056199,0.022331 -0.092486,0.038148 -0.1088611,0.047452 -0.029402,0.016376 -0.05043,0.033496 -0.063084,0.05136 -0.012654,0.017865 -0.018981,0.037404 -0.018981,0.058618 -10e-8,0.026797 0.008,0.049034 0.024005,0.066712 0.016003,0.017678 0.034426,0.026517 0.055268,0.026517 0.028285,0 0.065502,-0.018609 0.1116524,-0.055826 z"
       id="path7607-7"
       inkscape:connector-curvature="0" /><path
       d="m 9.3947354,8.706582 c 0.013398,-0.02754 0.028471,-0.047638 0.045219,-0.060292 0.023819,-0.017492 0.051546,-0.026238 0.083181,-0.026238 0.03424,7e-7 0.061222,0.00856 0.080948,0.02568 0.019725,0.017121 0.029588,0.035916 0.029588,0.056385 -3e-7,0.025308 -0.019539,0.054152 -0.058618,0.086531 0.026796,0.00968 0.046987,0.023541 0.060571,0.04159 0.013584,0.018051 0.020376,0.038055 0.020376,0.060013 -2e-7,0.038335 -0.015911,0.071272 -0.047731,0.098812 -0.031821,0.027541 -0.077692,0.041312 -0.1376116,0.041311 -0.031263,4e-7 -0.053779,-0.00447 -0.06755,-0.013398 -0.00968,-0.00633 -0.014515,-0.013584 -0.014515,-0.021772 0,-0.00633 0.00307,-0.012095 0.00921,-0.017306 0.00614,-0.00521 0.014049,-0.00782 0.023726,-0.00782 0.010421,4e-7 0.025494,0.00447 0.045219,0.013398 0.019725,0.00893 0.036659,0.013399 0.050802,0.013398 0.020842,4e-7 0.038706,-0.00735 0.053593,-0.022051 0.014887,-0.0147 0.02233,-0.031913 0.022331,-0.051639 -2e-7,-0.016747 -0.00493,-0.032751 -0.014794,-0.048011 -0.00986,-0.015259 -0.02261,-0.025866 -0.038241,-0.031821 -0.022331,-0.00856 -0.042242,-0.012839 -0.059734,-0.01284 l -0.016748,0 0,-0.015631 c 0.028657,6e-7 0.052756,-0.00875 0.072295,-0.026238 0.019539,-0.017492 0.029309,-0.037589 0.029309,-0.060292 -2e-7,-0.018236 -0.00614,-0.033123 -0.018423,-0.044661 -0.012282,-0.011537 -0.028658,-0.017305 -0.049127,-0.017306 -0.031635,7e-7 -0.05899,0.016376 -0.082065,0.049127 z"
       id="path7609-9"
       inkscape:connector-curvature="0" /></g><g
     transform="matrix(112.82446,0,0,112.82447,-900.49349,1329.7735)"
     style="font-style:normal;font-variant:normal;font-weight:normal;font-stretch:normal;font-size:1.14332044px;line-height:125%;font-family:'Times New Roman';-inkscape-font-specification:'Times New Roman,';text-align:start;letter-spacing:0px;word-spacing:0px;writing-mode:lr-tb;text-anchor:start;opacity:0.25;fill:#000000;fill-opacity:1;fill-rule:evenodd;stroke:none"
     id="text3144"><path
       d="m 13.959147,0.95280615 c 0.0495,-0.0688518 0.102906,-0.10327793 0.160221,-0.10327846 0.05248,5.3e-7 0.09825,0.022424 0.137333,0.0672706 0.03908,0.0448475 0.05862,0.10616311 0.05862,0.18394731 0,0.090811 -0.03015,0.163943 -0.09044,0.2193969 -0.05173,0.047638 -0.10942,0.071457 -0.173061,0.071457 -0.02978,0 -0.06001,-0.0054 -0.09072,-0.01619 -0.0307,-0.010793 -0.06206,-0.026983 -0.09407,-0.048569 l 0,-0.52979049 c 0,-0.0580586 -0.0014,-0.0937873 -0.0042,-0.10718629 -0.0028,-0.0133976 -0.0072,-0.0225159 -0.01312,-0.0273548 -0.006,-0.004838 -0.0134,-0.007257 -0.02233,-0.007257 -0.01042,7.2e-7 -0.02345,0.002978 -0.03908,0.008932 l -0.0078,-0.0195392 0.153522,-0.0625253 0.02512,0 z m 0,0.0357288 0,0.30592755 c 0.01898,0.018609 0.03861,0.032658 0.0589,0.042149 0.02028,0.00949 0.04103,0.014236 0.06225,0.014236 0.03387,0 0.06541,-0.018609 0.09463,-0.055826 0.02922,-0.037217 0.04382,-0.091369 0.04382,-0.1624542 0,-0.065502 -0.01461,-0.115839 -0.04382,-0.15100982 -0.02922,-0.0351701 -0.06243,-0.0527553 -0.09965,-0.0527557 -0.01973,4.4e-7 -0.03945,0.005025 -0.05918,0.0150731 -0.01489,0.007444 -0.03387,0.0223309 -0.05694,0.044661 z"
       id="path3149"
       inkscape:connector-curvature="0" /><path
       d="m 14.680422,1.3022781 c -0.05248,0.040567 -0.08541,0.064014 -0.09881,0.070341 -0.0201,0.0093 -0.0415,0.013957 -0.0642,0.013957 -0.03536,0 -0.06448,-0.012096 -0.08737,-0.036287 -0.02289,-0.024191 -0.03433,-0.056012 -0.03433,-0.095463 0,-0.024936 0.0056,-0.046522 0.01675,-0.064758 0.01526,-0.025308 0.04178,-0.049127 0.07955,-0.071458 0.03778,-0.02233 0.10058,-0.049499 0.188414,-0.081506 l 0,-0.020097 c -1e-6,-0.0509875 -0.0081,-0.0859719 -0.02429,-0.10495327 -0.01619,-0.0189804 -0.03973,-0.0284709 -0.07062,-0.0284714 -0.02345,4.9e-7 -0.04206,0.006327 -0.05583,0.0189809 -0.01414,0.0126544 -0.02121,0.0271692 -0.02121,0.0435444 l 0.0011,0.0323792 c 0,0.0171204 -0.0044,0.0303326 -0.01312,0.0396366 -0.0087,0.0093 -0.02019,0.013957 -0.03433,0.013956 -0.01377,4e-7 -0.02503,-0.00484 -0.03378,-0.014515 -0.0087,-0.00968 -0.01312,-0.0228883 -0.01312,-0.0396366 0,-0.0320066 0.01638,-0.0614084 0.04913,-0.0882054 0.03275,-0.0267961 0.07872,-0.0401943 0.137891,-0.0401949 0.04541,5.3e-7 0.08262,0.00763 0.111652,0.0228887 0.02196,0.0115379 0.03815,0.0295884 0.04857,0.0541514 0.0067,0.0160039 0.01005,0.0487553 0.01005,0.0982541 l 0,0.1736195 c -1e-6,0.048755 9.3e-4,0.078622 0.0028,0.089601 0.0019,0.010979 0.0049,0.01833 0.0092,0.022051 0.0043,0.00372 0.0092,0.00558 0.01479,0.00558 0.006,1e-7 0.01117,-0.0013 0.01563,-0.00391 0.0078,-0.00484 0.02289,-0.018423 0.04522,-0.040753 l 0,0.031263 c -0.04168,0.055826 -0.08151,0.083739 -0.119468,0.083739 -0.01824,0 -0.03275,-0.00633 -0.04354,-0.018981 -0.01079,-0.012654 -0.01638,-0.03424 -0.01675,-0.064758 z m 0,-0.036287 0,-0.1948334 c -0.0562,0.022331 -0.09249,0.038148 -0.108861,0.047452 -0.0294,0.016376 -0.05043,0.033496 -0.06308,0.05136 -0.01265,0.017865 -0.01898,0.037404 -0.01898,0.058617 0,0.026797 0.008,0.049034 0.024,0.066712 0.016,0.017678 0.03443,0.026517 0.05527,0.026517 0.02829,0 0.0655,-0.018609 0.111653,-0.055826 z"
       id="path3151"
       inkscape:connector-curvature="0" /><path
       d="m 15.182857,0.92042696 -0.03405,0.0848558 -0.275781,0 0,-0.0161896 c 0.09193,-0.0714571 0.152964,-0.12970234 0.18311,-0.17473598 0.01861,-0.0275403 0.02791,-0.0541508 0.02791,-0.0798315 0,-0.022702 -0.0077,-0.0417759 -0.02317,-0.0572219 -0.01544,-0.0154445 -0.03489,-0.0231671 -0.05834,-0.0231679 -0.02121,7.3e-7 -0.03982,0.00549 -0.05583,0.0164687 -0.016,0.0109799 -0.0281,0.0274486 -0.03629,0.0494062 l -0.02512,0 c 0.0052,-0.0364724 0.01963,-0.0650368 0.04326,-0.0856932 0.02363,-0.0206549 0.05424,-0.0309828 0.09183,-0.0309835 0.03945,7.7e-7 0.07155,0.0107938 0.0963,0.0323792 0.02475,0.0215868 0.03712,0.0457782 0.03713,0.072574 -1e-6,0.0245642 -0.0089,0.0508025 -0.0268,0.0787149 -0.02791,0.043545 -0.08281,0.0984407 -0.164687,0.16468727 l 0.103837,0 c 0.03238,4.3e-7 0.05387,-0.002233 0.06448,-0.006699 0.01061,-0.004466 0.01963,-0.0126535 0.02708,-0.0245635 z"
       id="path3153"
       inkscape:connector-curvature="0" /></g><g
     style="fill-rule:evenodd"
     id="g4255"
     transform="matrix(112.82446,0,0,112.82447,-868.89727,-258.82919)"><path
       d="m 11.350547,14.38469 c -0.05248,0.04057 -0.08541,0.06401 -0.09881,0.07034 -0.0201,0.0093 -0.0415,0.01396 -0.0642,0.01396 -0.03536,0 -0.06448,-0.0121 -0.08737,-0.03629 -0.02289,-0.02419 -0.03433,-0.05601 -0.03433,-0.09546 0,-0.02494 0.0056,-0.04652 0.01675,-0.06476 0.01526,-0.02531 0.04178,-0.04913 0.07955,-0.07146 0.03777,-0.02233 0.10058,-0.0495 0.188413,-0.08151 l 0,-0.0201 c 0,-0.05099 -0.0081,-0.08597 -0.02428,-0.104953 -0.01619,-0.01898 -0.03973,-0.02847 -0.07062,-0.02847 -0.02345,0 -0.04205,0.0063 -0.05583,0.01898 -0.01414,0.01265 -0.02121,0.02717 -0.02121,0.04354 l 0.0011,0.03238 c 0,0.01712 -0.0044,0.03033 -0.01312,0.03964 -0.0087,0.0093 -0.02019,0.01396 -0.03433,0.01396 -0.01377,10e-7 -0.02503,-0.0048 -0.03378,-0.01451 -0.0087,-0.0097 -0.01312,-0.02289 -0.01312,-0.03964 0,-0.03201 0.01638,-0.06141 0.04913,-0.08821 0.03275,-0.0268 0.07871,-0.0402 0.13789,-0.0402 0.0454,0 0.08262,0.0076 0.111653,0.02289 0.02196,0.01154 0.03815,0.02959 0.04857,0.05415 0.0067,0.016 0.01005,0.04875 0.01005,0.09825 l 0,0.173619 c 0,0.04875 9.3e-4,0.07862 0.0028,0.0896 0.0019,0.01098 0.0049,0.01833 0.0092,0.02205 0.0043,0.0037 0.0092,0.0056 0.01479,0.0056 0.006,0 0.01117,-0.0013 0.01563,-0.0039 0.0078,-0.0048 0.02289,-0.01842 0.04522,-0.04075 l 0,0.03126 c -0.04168,0.05583 -0.08151,0.08374 -0.119468,0.08374 -0.01824,0 -0.03275,-0.0063 -0.04354,-0.01898 -0.01079,-0.01265 -0.01638,-0.03424 -0.01675,-0.06476 z m 0,-0.03629 0,-0.194833 c -0.0562,0.02233 -0.09249,0.03815 -0.108861,0.04745 -0.0294,0.01638 -0.05043,0.0335 -0.06308,0.05136 -0.01265,0.01787 -0.01898,0.0374 -0.01898,0.05862 0,0.0268 0.008,0.04903 0.02401,0.06671 0.016,0.01768 0.03443,0.02652 0.05527,0.02652 0.02829,0 0.0655,-0.01861 0.111652,-0.05583 z"
       id="path3209"
       inkscape:connector-curvature="0"
       style="font-style:normal;font-variant:normal;font-weight:normal;font-stretch:normal;font-size:medium;line-height:125%;font-family:'Times New Roman';-inkscape-font-specification:'Times New Roman,';text-align:start;letter-spacing:0px;word-spacing:0px;writing-mode:lr-tb;text-anchor:start;fill:#000000;fill-opacity:1;stroke:none" /><path
       d="m 11.707835,14.035218 c 0.0495,-0.06885 0.102906,-0.103278 0.160221,-0.103278 0.05248,0 0.09825,0.02242 0.137332,0.06727 0.03908,0.04485 0.05862,0.106163 0.05862,0.183948 -10e-7,0.09081 -0.03015,0.163943 -0.09044,0.219396 -0.05173,0.04764 -0.109419,0.07146 -0.173061,0.07146 -0.02977,0 -0.06001,-0.0054 -0.09072,-0.01619 -0.0307,-0.01079 -0.06206,-0.02698 -0.09407,-0.04857 l 0,-0.529791 c 0,-0.05806 -0.0014,-0.09379 -0.0042,-0.107186 -0.0028,-0.0134 -0.0072,-0.02252 -0.01312,-0.02736 -0.006,-0.0048 -0.0134,-0.0073 -0.02233,-0.0073 -0.01042,0 -0.02345,0.003 -0.03908,0.0089 l -0.0078,-0.01954 0.153522,-0.06253 0.02512,0 z m 0,0.03573 0,0.305927 c 0.01898,0.01861 0.03861,0.03266 0.0589,0.04215 0.02028,0.0095 0.04103,0.01424 0.06225,0.01424 0.03387,0 0.06541,-0.01861 0.09462,-0.05583 0.02922,-0.03722 0.04382,-0.09137 0.04382,-0.162455 0,-0.0655 -0.01461,-0.115839 -0.04382,-0.151009 -0.02922,-0.03517 -0.06243,-0.05276 -0.09965,-0.05276 -0.01973,0 -0.03945,0.005 -0.05918,0.01507 -0.01489,0.0074 -0.03387,0.02233 -0.05694,0.04466 z"
       id="path3211"
       inkscape:connector-curvature="0"
       style="font-style:normal;font-variant:normal;font-weight:normal;font-stretch:normal;font-size:medium;line-height:125%;font-family:'Times New Roman';-inkscape-font-specification:'Times New Roman,';text-align:start;letter-spacing:0px;word-spacing:0px;writing-mode:lr-tb;text-anchor:start;fill:#000000;fill-opacity:1;stroke:none" /></g><g
     transform="matrix(112.82446,0,0,112.82447,904.41711,1329.7734)"
     style="font-style:normal;font-variant:normal;font-weight:normal;font-stretch:normal;font-size:1.14332044px;line-height:125%;font-family:'Times New Roman';-inkscape-font-specification:'Times New Roman,';text-align:start;letter-spacing:0px;word-spacing:0px;writing-mode:lr-tb;text-anchor:start;opacity:0.25;fill:#000000;fill-opacity:1;fill-rule:evenodd;stroke:none"
     id="text3136"><path
       d="m 0.71270022,0.95280615 c 0.049499,-0.0688518 0.102906,-0.10327793 0.16022117,-0.10327846 0.0524762,5.3e-7 0.0982537,0.022424 0.13733241,0.0672706 0.039078,0.0448475 0.058617,0.10616311 0.058617,0.18394731 -5e-7,0.090811 -0.030147,0.163943 -0.0904384,0.2193969 C 0.92670024,1.3677809 0.86901323,1.3916 0.8053717,1.3916 0.7755975,1.3916 0.7453583,1.3862 0.7146541,1.37541 0.68394958,1.3646174 0.6525939,1.3484278 0.620587,1.3268416 l 0,-0.52979053 C 0.62058692,0.73899247 0.619191,0.70326377 0.6164,0.68986478 0.613609,0.67646718 0.609236,0.66734888 0.6032808,0.66250998 c -0.005955,-0.004838 -0.0133983,-0.007257 -0.0223305,-0.007257 -0.0104209,7.2e-7 -0.023447,0.002978 -0.0390783,0.008932 l -0.007816,-0.0195392 0.15352203,-0.0625253 0.0251218,0 z m 0,0.0357288 0,0.30592755 c 0.0189807,0.018609 0.0386129,0.032658 0.0588966,0.042149 0.0202833,0.00949 0.041032,0.014236 0.0622462,0.014236 0.0338676,0 0.0654093,-0.018609 0.0946254,-0.055826 0.0292153,-0.037217 0.0438231,-0.091369 0.0438236,-0.1624542 -4.4e-7,-0.065502 -0.0146083,-0.115839 -0.0438236,-0.15100982 -0.0292161,-0.0351701 -0.0624326,-0.0527553 -0.0996498,-0.0527557 -0.0197255,4.4e-7 -0.0394508,0.005025 -0.0591758,0.0150731 -0.0148872,0.007444 -0.0338681,0.0223309 -0.0569427,0.044661 z"
       id="path3163"
       inkscape:connector-curvature="0" /><path
       d="m 1.4339746,1.3022781 c -0.052477,0.040567 -0.085414,0.064014 -0.098812,0.070341 -0.020098,0.0093 -0.041498,0.013957 -0.0642,0.013957 -0.035357,0 -0.064479,-0.012096 -0.087368,-0.036287 -0.022889,-0.024191 -0.034333,-0.056012 -0.034333,-0.095463 -1e-7,-0.024936 0.00558,-0.046522 0.016748,-0.064758 0.015259,-0.025308 0.041776,-0.049127 0.079552,-0.071458 0.037776,-0.02233 0.10058,-0.049499 0.1884134,-0.081506 l 0,-0.020097 c -3e-7,-0.0509875 -0.0081,-0.0859719 -0.024284,-0.10495327 -0.01619,-0.0189804 -0.03973,-0.0284709 -0.07062,-0.0284714 -0.023447,4.9e-7 -0.042056,0.006327 -0.055826,0.0189809 -0.014143,0.0126544 -0.021214,0.0271692 -0.021214,0.0435444 l 0.00112,0.0323792 c -2e-7,0.0171204 -0.00437,0.0303326 -0.013119,0.0396366 -0.00875,0.0093 -0.020191,0.013957 -0.034333,0.013956 -0.01377,4e-7 -0.025029,-0.00484 -0.033775,-0.014515 -0.00875,-0.00968 -0.013119,-0.0228883 -0.013119,-0.0396366 0,-0.0320066 0.016376,-0.0614084 0.049127,-0.0882054 0.032751,-0.0267961 0.078715,-0.0401943 0.1378907,-0.0401949 0.045405,5.3e-7 0.082622,0.00763 0.1116524,0.0228887 0.021958,0.0115379 0.038148,0.0295884 0.048569,0.0541514 0.0067,0.0160039 0.010048,0.0487553 0.010049,0.0982541 l 0,0.1736195 c -5e-7,0.048755 9.3e-4,0.078622 0.00279,0.089601 0.00186,0.010979 0.00493,0.01833 0.00921,0.022051 0.00428,0.00372 0.00921,0.00558 0.014794,0.00558 0.00595,1e-7 0.011165,-0.0013 0.015631,-0.00391 0.00782,-0.00484 0.022888,-0.018423 0.045219,-0.040753 l 0,0.031263 c -0.041684,0.055826 -0.081507,0.083739 -0.1194681,0.083739 -0.018237,0 -0.032752,-0.00633 -0.043544,-0.018981 -0.010793,-0.012654 -0.016376,-0.03424 -0.016748,-0.064758 z m 0,-0.036287 0,-0.1948334 c -0.056199,0.022331 -0.092486,0.038148 -0.108861,0.047452 -0.029402,0.016376 -0.05043,0.033496 -0.063084,0.05136 -0.012654,0.017865 -0.018981,0.037404 -0.018981,0.058617 -2e-7,0.026797 0.008,0.049034 0.024005,0.066712 0.016003,0.017678 0.034426,0.026517 0.055268,0.026517 0.028285,0 0.065502,-0.018609 0.1116523,-0.055826 z"
       id="path3165"
       inkscape:connector-curvature="0" /></g><g
     style="fill-rule:evenodd"
     id="g4238"
     transform="matrix(112.82446,0,0,112.82447,-551.53753,1260.044)"><path
       d="m 11.002448,0.92233731 c -0.05248,0.0405671 -0.08541,0.0640141 -0.09881,0.070341 -0.0201,0.009304 -0.0415,0.0139566 -0.0642,0.0139566 -0.03536,0 -0.06448,-0.0120957 -0.08737,-0.0362871 -0.02289,-0.0241913 -0.03433,-0.0560122 -0.03433,-0.0954628 0,-0.0249356 0.0056,-0.0465217 0.01675,-0.0647584 0.01526,-0.0253077 0.04178,-0.0491268 0.07955,-0.0714575 0.03778,-0.0223302 0.10058,-0.0494989 0.188414,-0.0815062 l 0,-0.0200974 c 0,-0.0509875 -0.0081,-0.0859719 -0.02428,-0.10495324 -0.01619,-0.0189804 -0.03973,-0.0284709 -0.07062,-0.0284714 -0.02345,4.9e-7 -0.04206,0.006327 -0.05583,0.0189809 -0.01414,0.0126544 -0.02121,0.0271692 -0.02121,0.0435444 l 0.0011,0.0323792 c 0,0.0171204 -0.0044,0.0303326 -0.01312,0.0396366 -0.0087,0.009305 -0.02019,0.0139569 -0.03433,0.0139566 -0.01377,3.4e-7 -0.02503,-0.004838 -0.03377,-0.0145148 -0.0087,-0.009676 -0.01312,-0.0228884 -0.01312,-0.0396366 0,-0.0320066 0.01638,-0.0614084 0.04913,-0.0882054 0.03275,-0.0267961 0.07871,-0.0401943 0.137891,-0.0401949 0.0454,5.3e-7 0.08262,0.00763 0.111653,0.0228887 0.02196,0.0115379 0.03815,0.0295884 0.04857,0.0541514 0.0067,0.0160039 0.01005,0.0487553 0.01005,0.0982541 l 0,0.17361946 c 0,0.048755 9.3e-4,0.078622 0.0028,0.089601 0.0019,0.0109792 0.0049,0.0183297 0.0092,0.0220514 0.0043,0.003722 0.0092,0.005583 0.01479,0.005583 0.006,6e-8 0.01116,-0.001303 0.01563,-0.003908 0.0078,-0.004838 0.02289,-0.0184226 0.04522,-0.0407531 l 0,0.0312627 c -0.04168,0.0558262 -0.08151,0.0837393 -0.119468,0.0837393 -0.01824,0 -0.03275,-0.006327 -0.04354,-0.0189809 -0.01079,-0.0126539 -0.01638,-0.03424 -0.01675,-0.0647584 z m 0,-0.036287 0,-0.19483342 c -0.0562,0.0223308 -0.09249,0.0381482 -0.108861,0.0474523 -0.0294,0.0163759 -0.05043,0.0334959 -0.06308,0.0513601 -0.01265,0.0178646 -0.01898,0.0374037 -0.01898,0.0586175 0,0.0267967 0.008,0.0490341 0.02401,0.0667123 0.016,0.0176783 0.03443,0.0265175 0.05527,0.0265174 0.02829,5e-8 0.0655,-0.0186087 0.111653,-0.0558262 z"
       id="path3200"
       inkscape:connector-curvature="0"
       style="font-style:normal;font-variant:normal;font-weight:normal;font-stretch:normal;font-size:medium;line-height:125%;font-family:'Times New Roman';-inkscape-font-specification:'Times New Roman,';text-align:start;letter-spacing:0px;word-spacing:0px;writing-mode:lr-tb;text-anchor:start;fill:#000000;fill-opacity:1;stroke:none" /><path
       d="m 11.504884,0.54048615 -0.03405,0.0848558 -0.275782,0 0,-0.0161896 c 0.09193,-0.0714571 0.152964,-0.12970234 0.18311,-0.17473599 0.01861,-0.0275403 0.02791,-0.0541508 0.02791,-0.0798315 0,-0.022702 -0.0077,-0.0417759 -0.02317,-0.0572218 -0.01544,-0.0154445 -0.03489,-0.0231672 -0.05834,-0.0231679 -0.02121,7.2e-7 -0.03982,0.00549 -0.05583,0.0164687 -0.016,0.0109798 -0.0281,0.0274486 -0.03629,0.0494062 l -0.02512,0 c 0.0052,-0.0364724 0.01963,-0.0650368 0.04327,-0.0856932 0.02363,-0.0206549 0.05424,-0.0309828 0.09183,-0.0309835 0.03945,7.7e-7 0.07155,0.0107938 0.0963,0.0323792 0.02475,0.0215868 0.03712,0.0457782 0.03712,0.0725741 0,0.0245642 -0.0089,0.0508025 -0.0268,0.0787149 -0.02791,0.043545 -0.08281,0.0984407 -0.164687,0.16468727 l 0.103837,0 c 0.03238,4.2e-7 0.05387,-0.002233 0.06448,-0.006699 0.01061,-0.004466 0.01963,-0.0126535 0.02708,-0.0245635 z"
       id="path3202"
       inkscape:connector-curvature="0"
       style="font-style:normal;font-variant:normal;font-weight:normal;font-stretch:normal;font-size:medium;line-height:125%;font-family:'Times New Roman';-inkscape-font-specification:'Times New Roman,';text-align:start;letter-spacing:0px;word-spacing:0px;writing-mode:lr-tb;text-anchor:start;fill:#000000;fill-opacity:1;stroke:none" /><path
       d="m 11.703625,0.57286534 c 0.0495,-0.0688518 0.102906,-0.10327793 0.160221,-0.10327846 0.05248,5.3e-7 0.09825,0.022424 0.137332,0.0672706 0.03908,0.0448475 0.05862,0.10616316 0.05862,0.1839473 -1e-6,0.0908108 -0.03015,0.16394304 -0.09044,0.21939694 -0.05173,0.0476384 -0.10942,0.0714575 -0.173062,0.0714575 -0.02977,0 -0.06001,-0.0054 -0.09072,-0.0161896 -0.03071,-0.0107931 -0.06206,-0.0269826 -0.09407,-0.0485688 l 0,-0.52979058 c 0,-0.0580586 -0.0014,-0.0937873 -0.0042,-0.10718629 -0.0028,-0.0133976 -0.0072,-0.0225159 -0.01312,-0.0273548 -0.006,-0.004838 -0.0134,-0.007257 -0.02233,-0.007257 -0.01042,7.2e-7 -0.02345,0.002978 -0.03908,0.008932 l -0.0078,-0.0195392 0.153522,-0.0625253 0.02512,0 z m 0,0.0357288 0,0.30592754 c 0.01898,0.0186088 0.03861,0.0326584 0.0589,0.0421488 0.02028,0.00949 0.04103,0.0142357 0.06225,0.0142357 0.03387,2e-8 0.06541,-0.0186087 0.09462,-0.0558262 0.02922,-0.0372174 0.04382,-0.0913687 0.04382,-0.16245423 -10e-7,-0.0655024 -0.01461,-0.11583899 -0.04382,-0.15100985 -0.02922,-0.0351701 -0.06243,-0.0527553 -0.09965,-0.0527557 -0.01972,4.4e-7 -0.03945,0.005025 -0.05917,0.0150731 -0.01489,0.007444 -0.03387,0.0223309 -0.05694,0.044661 z"
       id="path3204"
       inkscape:connector-curvature="0"
       style="font-style:normal;font-variant:normal;font-weight:normal;font-stretch:normal;font-size:medium;line-height:125%;font-family:'Times New Roman';-inkscape-font-specification:'Times New Roman,';text-align:start;letter-spacing:0px;word-spacing:0px;writing-mode:lr-tb;text-anchor:start;fill:#000000;fill-opacity:1;stroke:none" /></g><g
     style="fill-rule:evenodd"
     id="g4247"
     transform="matrix(112.82446,0,0,112.82447,677.62162,1260.044)"><path
       d="m 2.6977417,0.92233731 c -0.052477,0.0405671 -0.085414,0.0640141 -0.098812,0.070341 -0.020098,0.009304 -0.041498,0.0139565 -0.0642,0.0139565 -0.035357,0 -0.064479,-0.0120957 -0.087368,-0.036287 -0.022889,-0.0241913 -0.034333,-0.0560122 -0.034333,-0.0954628 0,-0.0249356 0.00558,-0.0465217 0.016748,-0.0647584 0.015259,-0.0253077 0.041777,-0.0491268 0.079552,-0.0714575 0.037775,-0.0223302 0.1005799,-0.0494989 0.1884134,-0.0815062 l 0,-0.0200974 c -3e-7,-0.0509875 -0.0081,-0.0859719 -0.024284,-0.10495324 -0.01619,-0.0189804 -0.03973,-0.0284709 -0.07062,-0.0284714 -0.023447,4.9e-7 -0.042056,0.006327 -0.055826,0.0189809 -0.014143,0.0126544 -0.021214,0.0271692 -0.021214,0.0435444 l 0.00112,0.0323792 c -10e-8,0.0171204 -0.00437,0.0303326 -0.013119,0.0396366 -0.00875,0.009305 -0.020191,0.0139569 -0.034333,0.0139565 -0.013771,3.5e-7 -0.025029,-0.004838 -0.033775,-0.0145148 -0.00875,-0.009676 -0.013119,-0.0228884 -0.013119,-0.0396366 -10e-8,-0.0320066 0.016376,-0.0614084 0.049127,-0.0882054 0.032751,-0.0267961 0.078715,-0.0401943 0.1378907,-0.0401949 0.045405,5.3e-7 0.082622,0.00763 0.1116524,0.0228887 0.021958,0.0115379 0.038148,0.0295884 0.048569,0.0541514 0.0067,0.0160039 0.010048,0.0487553 0.010049,0.0982541 l 0,0.17361946 c -4e-7,0.048755 9.3e-4,0.078622 0.00279,0.089601 0.00186,0.0109792 0.00493,0.0183297 0.00921,0.0220514 0.00428,0.003722 0.00921,0.005583 0.014794,0.005583 0.00595,6e-8 0.011165,-0.001303 0.015631,-0.003908 0.00782,-0.004838 0.022888,-0.0184226 0.045219,-0.0407531 l 0,0.0312627 c -0.041684,0.0558262 -0.081507,0.0837393 -0.119468,0.0837393 -0.018237,0 -0.032752,-0.006327 -0.043545,-0.0189809 -0.010793,-0.0126539 -0.016376,-0.03424 -0.016748,-0.0647584 z m 0,-0.036287 0,-0.19483342 c -0.056199,0.0223308 -0.092486,0.0381482 -0.1088611,0.0474523 -0.029402,0.0163759 -0.05043,0.0334959 -0.063084,0.0513601 -0.012654,0.0178646 -0.018981,0.0374037 -0.018981,0.0586175 -10e-8,0.0267967 0.008,0.0490341 0.024005,0.0667123 0.016003,0.0176783 0.034426,0.0265175 0.055268,0.0265174 0.028285,5e-8 0.065503,-0.0186087 0.1116524,-0.0558262 z"
       id="path3193"
       inkscape:connector-curvature="0"
       style="font-style:normal;font-variant:normal;font-weight:normal;font-stretch:normal;font-size:medium;line-height:125%;font-family:'Times New Roman';-inkscape-font-specification:'Times New Roman,';text-align:start;letter-spacing:0px;word-spacing:0px;writing-mode:lr-tb;text-anchor:start;fill:#000000;fill-opacity:1;stroke:none" /><path
       d="m 2.9098812,0.30992397 c 0.013398,-0.0275402 0.028471,-0.0476376 0.045219,-0.0602923 0.023819,-0.0174914 0.051546,-0.0262375 0.083181,-0.0262383 0.03424,7.7e-7 0.061222,0.008561 0.080948,0.0256801 0.019725,0.0171208 0.029588,0.0359156 0.029588,0.0563845 -3e-7,0.0253085 -0.01954,0.0541521 -0.058617,0.0865306 0.026796,0.009677 0.046987,0.0235406 0.060571,0.0415905 0.013584,0.018051 0.020376,0.0380554 0.020376,0.0600132 -3e-7,0.0383345 -0.015911,0.0712719 -0.047731,0.0988124 -0.031821,0.0275413 -0.077692,0.0413117 -0.1376115,0.0413114 -0.031263,3.6e-7 -0.053779,-0.004466 -0.06755,-0.0133983 -0.00968,-0.006327 -0.014515,-0.013584 -0.014515,-0.0217722 -10e-8,-0.006327 0.00307,-0.0120953 0.00921,-0.0173061 0.00614,-0.00521 0.01405,-0.007815 0.023726,-0.007816 0.010421,4.2e-7 0.025494,0.004467 0.045219,0.0133983 0.019725,0.008933 0.036659,0.0133987 0.050802,0.0133983 0.020842,3.9e-7 0.038706,-0.00735 0.053593,-0.0220514 0.014887,-0.0147005 0.02233,-0.0319135 0.02233,-0.0516392 -2e-7,-0.0167474 -0.00493,-0.0327509 -0.014794,-0.0480105 -0.00986,-0.0152586 -0.02261,-0.0258656 -0.038241,-0.0318209 -0.022331,-0.008559 -0.042242,-0.0128395 -0.059734,-0.01284 l -0.016748,0 0,-0.0156313 c 0.028657,5.8e-7 0.052756,-0.008746 0.072295,-0.0262383 0.019539,-0.0174916 0.029309,-0.037589 0.029309,-0.0602923 -2e-7,-0.0182359 -0.00614,-0.0331228 -0.018423,-0.0446609 -0.012282,-0.0115367 -0.028658,-0.0173054 -0.049127,-0.0173061 -0.031635,7.3e-7 -0.05899,0.0163764 -0.082064,0.0491271 z"
       id="path3195"
       inkscape:connector-curvature="0"
       style="font-style:normal;font-variant:normal;font-weight:normal;font-stretch:normal;font-size:medium;line-height:125%;font-family:'Times New Roman';-inkscape-font-specification:'Times New Roman,';text-align:start;letter-spacing:0px;word-spacing:0px;writing-mode:lr-tb;text-anchor:start;fill:#000000;fill-opacity:1;stroke:none" /><path
       d="m 3.3989187,0.57286534 c 0.049499,-0.0688518 0.102906,-0.10327793 0.1602212,-0.10327846 0.052476,5.3e-7 0.098254,0.022424 0.1373324,0.0672706 0.039078,0.0448475 0.058617,0.10616316 0.058617,0.1839473 -5e-7,0.0908108 -0.030147,0.16394304 -0.090438,0.21939694 -0.051733,0.0476384 -0.1094197,0.0714575 -0.1730612,0.0714575 -0.029774,0 -0.060013,-0.0054 -0.090718,-0.0161896 -0.030704,-0.0107931 -0.06206,-0.0269826 -0.094067,-0.0485688 l 0,-0.52979058 c -10e-8,-0.0580586 -0.0014,-0.0937873 -0.00419,-0.10718629 -0.00279,-0.0133976 -0.00716,-0.0225159 -0.013119,-0.0273548 -0.00595,-0.004838 -0.013398,-0.007257 -0.02233,-0.007257 -0.010421,7.2e-7 -0.023447,0.002978 -0.039078,0.008932 l -0.00782,-0.0195392 0.153522,-0.0625253 0.025122,0 z m 0,0.0357288 0,0.30592754 c 0.018981,0.0186088 0.038613,0.0326584 0.058897,0.0421488 0.020283,0.00949 0.041032,0.0142357 0.062246,0.0142357 0.033868,2e-8 0.065409,-0.0186087 0.094625,-0.0558262 0.029215,-0.0372174 0.043823,-0.0913687 0.043824,-0.16245423 -4e-7,-0.0655024 -0.014608,-0.11583899 -0.043824,-0.15100985 -0.029216,-0.0351701 -0.062433,-0.0527553 -0.09965,-0.0527557 -0.019725,4.4e-7 -0.039451,0.005025 -0.059176,0.0150731 -0.014887,0.007444 -0.033868,0.0223309 -0.056943,0.044661 z"
       id="path3197"
       inkscape:connector-curvature="0"
       style="font-style:normal;font-variant:normal;font-weight:normal;font-stretch:normal;font-size:medium;line-height:125%;font-family:'Times New Roman';-inkscape-font-specification:'Times New Roman,';text-align:start;letter-spacing:0px;word-spacing:0px;writing-mode:lr-tb;text-anchor:start;fill:#000000;fill-opacity:1;stroke:none" /></g><g
     transform="matrix(112.82446,0,0,112.82447,-1199.6166,-173.21709)"
     style="font-style:normal;font-variant:normal;font-weight:normal;font-stretch:normal;font-size:1.14332044px;line-height:125%;font-family:'Times New Roman';-inkscape-font-specification:'Times New Roman,';text-align:start;letter-spacing:0px;word-spacing:0px;writing-mode:lr-tb;text-anchor:start;opacity:0.25;fill:#000000;fill-opacity:1;fill-rule:evenodd;stroke:none"
     id="text3140"><path
       d="m 13.988177,14.274299 c 0.0495,-0.06885 0.102906,-0.103278 0.160221,-0.103279 0.05248,10e-7 0.09825,0.02242 0.137333,0.06727 0.03908,0.04485 0.05862,0.106163 0.05862,0.183947 0,0.09081 -0.03015,0.163943 -0.09044,0.219397 -0.05173,0.04764 -0.10942,0.07146 -0.173061,0.07146 -0.02978,0 -0.06001,-0.0054 -0.09072,-0.01619 -0.0307,-0.01079 -0.06206,-0.02698 -0.09407,-0.04857 l 0,-0.52979 c 0,-0.05806 -0.0014,-0.09379 -0.0042,-0.107187 -0.0028,-0.0134 -0.0072,-0.02252 -0.01312,-0.02736 -0.006,-0.0048 -0.0134,-0.0073 -0.02233,-0.0073 -0.01042,1e-6 -0.02345,0.003 -0.03908,0.0089 l -0.0078,-0.01954 0.153522,-0.06253 0.02512,0 z m 0,0.03573 0,0.305928 c 0.01898,0.01861 0.03861,0.03266 0.0589,0.04215 0.02028,0.0095 0.04103,0.01423 0.06225,0.01423 0.03387,0 0.06541,-0.01861 0.09462,-0.05583 0.02922,-0.03722 0.04382,-0.09137 0.04382,-0.162454 -10e-7,-0.0655 -0.01461,-0.115839 -0.04382,-0.15101 -0.02922,-0.03517 -0.06243,-0.05275 -0.09965,-0.05276 -0.01973,1e-6 -0.03945,0.005 -0.05918,0.01507 -0.01489,0.0074 -0.03387,0.02233 -0.05694,0.04466 z"
       id="path3156"
       inkscape:connector-curvature="0" /><path
       d="m 14.709451,14.623771 c -0.05248,0.04057 -0.08541,0.06401 -0.09881,0.07034 -0.0201,0.0093 -0.0415,0.01396 -0.0642,0.01396 -0.03536,0 -0.06448,-0.0121 -0.08737,-0.03629 -0.02289,-0.02419 -0.03433,-0.05601 -0.03433,-0.09546 0,-0.02494 0.0056,-0.04652 0.01675,-0.06476 0.01526,-0.02531 0.04178,-0.04913 0.07955,-0.07146 0.03778,-0.02233 0.10058,-0.0495 0.188413,-0.08151 l 0,-0.0201 c 0,-0.05099 -0.0081,-0.08597 -0.02428,-0.104954 -0.01619,-0.01898 -0.03973,-0.02847 -0.07062,-0.02847 -0.02345,1e-6 -0.04206,0.0063 -0.05583,0.01898 -0.01414,0.01265 -0.02121,0.02717 -0.02121,0.04354 l 0.0011,0.03238 c 0,0.01712 -0.0044,0.03033 -0.01312,0.03964 -0.0087,0.0093 -0.02019,0.01396 -0.03433,0.01396 -0.01377,0 -0.02503,-0.0048 -0.03378,-0.01451 -0.0087,-0.0097 -0.01312,-0.02289 -0.01312,-0.03964 0,-0.03201 0.01638,-0.06141 0.04913,-0.08821 0.03275,-0.0268 0.07872,-0.04019 0.137891,-0.04019 0.04541,10e-7 0.08262,0.0076 0.111652,0.02289 0.02196,0.01154 0.03815,0.02959 0.04857,0.05415 0.0067,0.016 0.01005,0.04876 0.01005,0.09825 l 0,0.17362 c -1e-6,0.04875 9.3e-4,0.07862 0.0028,0.0896 0.0019,0.01098 0.0049,0.01833 0.0092,0.02205 0.0043,0.0037 0.0092,0.0056 0.01479,0.0056 0.006,0 0.01117,-0.0013 0.01563,-0.0039 0.0078,-0.0048 0.02289,-0.01842 0.04522,-0.04075 l 0,0.03126 c -0.04168,0.05583 -0.08151,0.08374 -0.119468,0.08374 -0.01824,0 -0.03275,-0.0063 -0.04354,-0.01898 -0.01079,-0.01265 -0.01638,-0.03424 -0.01675,-0.06476 z m 0,-0.03629 0,-0.194834 c -0.0562,0.02233 -0.09248,0.03815 -0.108861,0.04745 -0.0294,0.01638 -0.05043,0.0335 -0.06308,0.05136 -0.01265,0.01787 -0.01898,0.0374 -0.01898,0.05862 0,0.0268 0.008,0.04903 0.02401,0.06671 0.016,0.01768 0.03443,0.02652 0.05527,0.02652 0.02829,0 0.0655,-0.01861 0.111652,-0.05583 z"
       id="path3158"
       inkscape:connector-curvature="0" /><path
       d="m 14.921591,14.011357 c 0.0134,-0.02754 0.02847,-0.04764 0.04522,-0.06029 0.02382,-0.01749 0.05155,-0.02624 0.08318,-0.02624 0.03424,0 0.06122,0.0086 0.08095,0.02568 0.01973,0.01712 0.02959,0.03591 0.02959,0.05638 0,0.02531 -0.01954,0.05415 -0.05862,0.08653 0.0268,0.0097 0.04699,0.02354 0.06057,0.04159 0.01358,0.01805 0.02038,0.03806 0.02038,0.06001 -1e-6,0.03834 -0.01591,0.07127 -0.04773,0.09881 -0.03182,0.02754 -0.07769,0.04131 -0.137611,0.04131 -0.03126,0 -0.05378,-0.0045 -0.06755,-0.0134 -0.0097,-0.0063 -0.01451,-0.01358 -0.01451,-0.02177 0,-0.0063 0.0031,-0.0121 0.0092,-0.01731 0.0061,-0.0052 0.01405,-0.0078 0.02373,-0.0078 0.01042,0 0.02549,0.0045 0.04522,0.0134 0.01972,0.0089 0.03666,0.0134 0.0508,0.0134 0.02084,10e-7 0.03871,-0.0074 0.05359,-0.02205 0.01489,-0.0147 0.02233,-0.03191 0.02233,-0.05164 0,-0.01675 -0.0049,-0.03275 -0.01479,-0.04801 -0.0099,-0.01526 -0.02261,-0.02586 -0.03824,-0.03182 -0.02233,-0.0086 -0.04224,-0.01284 -0.05973,-0.01284 l -0.01675,0 0,-0.01563 c 0.02866,1e-6 0.05276,-0.0087 0.0723,-0.02624 0.01954,-0.01749 0.02931,-0.03759 0.02931,-0.06029 0,-0.01824 -0.0061,-0.03312 -0.01842,-0.04466 -0.01228,-0.01154 -0.02866,-0.0173 -0.04913,-0.01731 -0.03164,1e-6 -0.05899,0.01638 -0.08206,0.04913 z"
       id="path3160"
       inkscape:connector-curvature="0" /></g></svg>