<svg version="1.1" xmlns="http://www.w3.org/2000/svg" xmlns:xlink="http://www.w3.org/1999/xlink" width="952" height="934"><defs><clipPath id="NhkyfTrzDAhP"><path fill="none" stroke="none" d=" M 0 0 L 952 0 L 952 934 L 0 934 L 0 0 Z"/></clipPath></defs><g transform="scale(1,1)" clip-path="url(#NhkyfTrzDAhP)"><g><rect fill="rgb(255,255,255)" stroke="none" x="0" y="0" width="952" height="934" fill-opacity="1"/><path fill="none" stroke="rgb(192,192,192)" paint-order="fill stroke markers" d=" M 7.5 0.5 L 7.5 934.5 M 7.5 0.5 L 7.5 934.5 M 63.5 0.5 L 63.5 934.5 M 120.5 0.5 L 120.5 934.5 M 176.5 0.5 L 176.5 934.5 M 233.5 0.5 L 233.5 934.5 M 290.5 0.5 L 290.5 934.5 M 346.5 0.5 L 346.5 934.5 M 403.5 0.5 L 403.5 934.5 M 516.5 0.5 L 516.5 934.5 M 572.5 0.5 L 572.5 934.5 M 629.5 0.5 L 629.5 934.5 M 685.5 0.5 L 685.5 934.5 M 742.5 0.5 L 742.5 934.5 M 799.5 0.5 L 799.5 934.5 M 855.5 0.5 L 855.5 934.5 M 912.5 0.5 L 912.5 934.5" stroke-opacity="1" stroke-linecap="round" stroke-linejoin="round" stroke-miterlimit="10"/><path fill="none" stroke="rgb(192,192,192)" paint-order="fill stroke markers" d=" M 18.5 0.5 L 18.5 934.5 M 29.5 0.5 L 29.5 934.5 M 41.5 0.5 L 41.5 934.5 M 52.5 0.5 L 52.5 934.5 M 75.5 0.5 L 75.5 934.5 M 86.5 0.5 L 86.5 934.5 M 97.5 0.5 L 97.5 934.5 M 109.5 0.5 L 109.5 934.5 M 131.5 0.5 L 131.5 934.5 M 143.5 0.5 L 143.5 934.5 M 154.5 0.5 L 154.5 934.5 M 165.5 0.5 L 165.5 934.5 M 188.5 0.5 L 188.5 934.5 M 199.5 0.5 L 199.5 934.5 M 210.5 0.5 L 210.5 934.5 M 222.5 0.5 L 222.5 934.5 M 244.5 0.5 L 244.5 934.5 M 256.5 0.5 L 256.5 934.5 M 267.5 0.5 L 267.5 934.5 M 278.5 0.5 L 278.5 934.5 M 301.5 0.5 L 301.5 934.5 M 312.5 0.5 L 312.5 934.5 M 324.5 0.5 L 324.5 934.5 M 335.5 0.5 L 335.5 934.5 M 357.5 0.5 L 357.5 934.5 M 369.5 0.5 L 369.5 934.5 M 380.5 0.5 L 380.5 934.5 M 391.5 0.5 L 391.5 934.5 M 414.5 0.5 L 414.5 934.5 M 425.5 0.5 L 425.5 934.5 M 437.5 0.5 L 437.5 934.5 M 448.5 0.5 L 448.5 934.5 M 471.5 0.5 L 471.5 934.5 M 482.5 0.5 L 482.5 934.5 M 493.5 0.5 L 493.5 934.5 M 505.5 0.5 L 505.5 934.5 M 527.5 0.5 L 527.5 934.5 M 538.5 0.5 L 538.5 934.5 M 550.5 0.5 L 550.5 934.5 M 561.5 0.5 L 561.5 934.5 M 584.5 0.5 L 584.5 934.5 M 595.5 0.5 L 595.5 934.5 M 606.5 0.5 L 606.5 934.5 M 618.5 0.5 L 618.5 934.5 M 640.5 0.5 L 640.5 934.5 M 652.5 0.5 L 652.5 934.5 M 663.5 0.5 L 663.5 934.5 M 674.5 0.5 L 674.5 934.5 M 697.5 0.5 L 697.5 934.5 M 708.5 0.5 L 708.5 934.5 M 719.5 0.5 L 719.5 934.5 M 731.5 0.5 L 731.5 934.5 M 753.5 0.5 L 753.5 934.5 M 765.5 0.5 L 765.5 934.5 M 776.5 0.5 L 776.5 934.5 M 787.5 0.5 L 787.5 934.5 M 810.5 0.5 L 810.5 934.5 M 821.5 0.5 L 821.5 934.5 M 833.5 0.5 L 833.5 934.5 M 844.5 0.5 L 844.5 934.5 M 866.5 0.5 L 866.5 934.5 M 878.5 0.5 L 878.5 934.5 M 889.5 0.5 L 889.5 934.5 M 900.5 0.5 L 900.5 934.5 M 923.5 0.5 L 923.5 934.5 M 934.5 0.5 L 934.5 934.5 M 946.5 0.5 L 946.5 934.5" stroke-opacity="0.23529411764705882" stroke-linecap="round" stroke-linejoin="round" stroke-miterlimit="10"/><path fill="none" stroke="rgb(192,192,192)" paint-order="fill stroke markers" d=" M 0.5 49.5 L 952.5 49.5 M 0.5 49.5 L 952.5 49.5 M 0.5 106.5 L 952.5 106.5 M 0.5 162.5 L 952.5 162.5 M 0.5 219.5 L 952.5 219.5 M 0.5 275.5 L 952.5 275.5 M 0.5 332.5 L 952.5 332.5 M 0.5 388.5 L 952.5 388.5 M 0.5 501.5 L 952.5 501.5 M 0.5 558.5 L 952.5 558.5 M 0.5 615.5 L 952.5 615.5 M 0.5 671.5 L 952.5 671.5 M 0.5 728.5 L 952.5 728.5 M 0.5 784.5 L 952.5 784.5 M 0.5 841.5 L 952.5 841.5 M 0.5 897.5 L 952.5 897.5" stroke-opacity="1" stroke-linecap="round" stroke-linejoin="round" stroke-miterlimit="10"/><path fill="none" stroke="rgb(192,192,192)" paint-order="fill stroke markers" d=" M 0.5 4.5 L 952.5 4.5 M 0.5 15.5 L 952.5 15.5 M 0.5 26.5 L 952.5 26.5 M 0.5 38.5 L 952.5 38.5 M 0.5 60.5 L 952.5 60.5 M 0.5 72.5 L 952.5 72.5 M 0.5 83.5 L 952.5 83.5 M 0.5 94.5 L 952.5 94.5 M 0.5 117.5 L 952.5 117.5 M 0.5 128.5 L 952.5 128.5 M 0.5 139.5 L 952.5 139.5 M 0.5 151.5 L 952.5 151.5 M 0.5 173.5 L 952.5 173.5 M 0.5 185.5 L 952.5 185.5 M 0.5 196.5 L 952.5 196.5 M 0.5 207.5 L 952.5 207.5 M 0.5 230.5 L 952.5 230.5 M 0.5 241.5 L 952.5 241.5 M 0.5 253.5 L 952.5 253.5 M 0.5 264.5 L 952.5 264.5 M 0.5 287.5 L 952.5 287.5 M 0.5 298.5 L 952.5 298.5 M 0.5 309.5 L 952.5 309.5 M 0.5 320.5 L 952.5 320.5 M 0.5 343.5 L 952.5 343.5 M 0.5 354.5 L 952.5 354.5 M 0.5 366.5 L 952.5 366.5 M 0.5 377.5 L 952.5 377.5 M 0.5 400.5 L 952.5 400.5 M 0.5 411.5 L 952.5 411.5 M 0.5 422.5 L 952.5 422.5 M 0.5 434.5 L 952.5 434.5 M 0.5 456.5 L 952.5 456.5 M 0.5 468.5 L 952.5 468.5 M 0.5 479.5 L 952.5 479.5 M 0.5 490.5 L 952.5 490.5 M 0.5 513.5 L 952.5 513.5 M 0.5 524.5 L 952.5 524.5 M 0.5 535.5 L 952.5 535.5 M 0.5 547.5 L 952.5 547.5 M 0.5 569.5 L 952.5 569.5 M 0.5 581.5 L 952.5 581.5 M 0.5 592.5 L 952.5 592.5 M 0.5 603.5 L 952.5 603.5 M 0.5 626.5 L 952.5 626.5 M 0.5 637.5 L 952.5 637.5 M 0.5 648.5 L 952.5 648.5 M 0.5 660.5 L 952.5 660.5 M 0.5 682.5 L 952.5 682.5 M 0.5 694.5 L 952.5 694.5 M 0.5 705.5 L 952.5 705.5 M 0.5 716.5 L 952.5 716.5 M 0.5 739.5 L 952.5 739.5 M 0.5 750.5 L 952.5 750.5 M 0.5 762.5 L 952.5 762.5 M 0.5 773.5 L 952.5 773.5 M 0.5 796.5 L 952.5 796.5 M 0.5 807.5 L 952.5 807.5 M 0.5 818.5 L 952.5 818.5 M 0.5 829.5 L 952.5 829.5 M 0.5 852.5 L 952.5 852.5 M 0.5 863.5 L 952.5 863.5 M 0.5 875.5 L 952.5 875.5 M 0.5 886.5 L 952.5 886.5 M 0.5 909.5 L 952.5 909.5 M 0.5 920.5 L 952.5 920.5 M 0.5 931.5 L 952.5 931.5" stroke-opacity="0.23529411764705882" stroke-linecap="round" stroke-linejoin="round" stroke-miterlimit="10"/><path fill="none" stroke="rgb(0,0,0)" paint-order="fill stroke markers" d=" M 460 3 L 460 934" stroke-opacity="1" stroke-miterlimit="10" stroke-width="2"/><path fill="none" stroke="rgb(0,0,0)" paint-order="fill stroke markers" d=" M 460 2 L 455 7" stroke-opacity="1" stroke-miterlimit="10" stroke-width="2"/><path fill="none" stroke="rgb(0,0,0)" paint-order="fill stroke markers" d=" M 460 2 L 465 7" stroke-opacity="1" stroke-miterlimit="10" stroke-width="2"/><path fill="none" stroke="rgb(0,0,0)" paint-order="fill stroke markers" d=" M 0 445 L 949 445" stroke-opacity="1" stroke-miterlimit="10" stroke-width="2"/><path fill="none" stroke="rgb(0,0,0)" paint-order="fill stroke markers" d=" M 950 445 L 945 440" stroke-opacity="1" stroke-miterlimit="10" stroke-width="2"/><path fill="none" stroke="rgb(0,0,0)" paint-order="fill stroke markers" d=" M 950 445 L 945 450" stroke-opacity="1" stroke-miterlimit="10" stroke-width="2"/><text fill="none" stroke="rgb(255,255,255)" font-family="geogebra-serif, serif" font-size="14px" font-style="normal" font-weight="bold" text-decoration="normal" x="48" y="463" text-anchor="start" dominant-baseline="alphabetic" stroke-opacity="1" stroke-linejoin="bevel" stroke-miterlimit="10" stroke-width="4.666666666666667">–1.4</text><text fill="rgb(0,0,0)" stroke="none" font-family="geogebra-serif, serif" font-size="14px" font-style="normal" font-weight="bold" text-decoration="normal" x="48" y="463" text-anchor="start" dominant-baseline="alphabetic" fill-opacity="1">–1.4</text><text fill="none" stroke="rgb(255,255,255)" font-family="geogebra-serif, serif" font-size="14px" font-style="normal" font-weight="bold" text-decoration="normal" x="104" y="463" text-anchor="start" dominant-baseline="alphabetic" stroke-opacity="1" stroke-linejoin="bevel" stroke-miterlimit="10" stroke-width="4.666666666666667">–1.2</text><text fill="rgb(0,0,0)" stroke="none" font-family="geogebra-serif, serif" font-size="14px" font-style="normal" font-weight="bold" text-decoration="normal" x="104" y="463" text-anchor="start" dominant-baseline="alphabetic" fill-opacity="1">–1.2</text><text fill="none" stroke="rgb(255,255,255)" font-family="geogebra-serif, serif" font-size="14px" font-style="normal" font-weight="bold" text-decoration="normal" x="169" y="463" text-anchor="start" dominant-baseline="alphabetic" stroke-opacity="1" stroke-linejoin="bevel" stroke-miterlimit="10" stroke-width="4.666666666666667">–1</text><text fill="rgb(0,0,0)" stroke="none" font-family="geogebra-serif, serif" font-size="14px" font-style="normal" font-weight="bold" text-decoration="normal" x="169" y="463" text-anchor="start" dominant-baseline="alphabetic" fill-opacity="1">–1</text><text fill="none" stroke="rgb(255,255,255)" font-family="geogebra-serif, serif" font-size="14px" font-style="normal" font-weight="bold" text-decoration="normal" x="217" y="463" text-anchor="start" dominant-baseline="alphabetic" stroke-opacity="1" stroke-linejoin="bevel" stroke-miterlimit="10" stroke-width="4.666666666666667">–0.8</text><text fill="rgb(0,0,0)" stroke="none" font-family="geogebra-serif, serif" font-size="14px" font-style="normal" font-weight="bold" text-decoration="normal" x="217" y="463" text-anchor="start" dominant-baseline="alphabetic" fill-opacity="1">–0.8</text><text fill="none" stroke="rgb(255,255,255)" font-family="geogebra-serif, serif" font-size="14px" font-style="normal" font-weight="bold" text-decoration="normal" x="274" y="463" text-anchor="start" dominant-baseline="alphabetic" stroke-opacity="1" stroke-linejoin="bevel" stroke-miterlimit="10" stroke-width="4.666666666666667">–0.6</text><text fill="rgb(0,0,0)" stroke="none" font-family="geogebra-serif, serif" font-size="14px" font-style="normal" font-weight="bold" text-decoration="normal" x="274" y="463" text-anchor="start" dominant-baseline="alphabetic" fill-opacity="1">–0.6</text><text fill="none" stroke="rgb(255,255,255)" font-family="geogebra-serif, serif" font-size="14px" font-style="normal" font-weight="bold" text-decoration="normal" x="330" y="463" text-anchor="start" dominant-baseline="alphabetic" stroke-opacity="1" stroke-linejoin="bevel" stroke-miterlimit="10" stroke-width="4.666666666666667">–0.4</text><text fill="rgb(0,0,0)" stroke="none" font-family="geogebra-serif, serif" font-size="14px" font-style="normal" font-weight="bold" text-decoration="normal" x="330" y="463" text-anchor="start" dominant-baseline="alphabetic" fill-opacity="1">–0.4</text><text fill="none" stroke="rgb(255,255,255)" font-family="geogebra-serif, serif" font-size="14px" font-style="normal" font-weight="bold" text-decoration="normal" x="387" y="463" text-anchor="start" dominant-baseline="alphabetic" stroke-opacity="1" stroke-linejoin="bevel" stroke-miterlimit="10" stroke-width="4.666666666666667">–0.2</text><text fill="rgb(0,0,0)" stroke="none" font-family="geogebra-serif, serif" font-size="14px" font-style="normal" font-weight="bold" text-decoration="normal" x="387" y="463" text-anchor="start" dominant-baseline="alphabetic" fill-opacity="1">–0.2</text><text fill="none" stroke="rgb(255,255,255)" font-family="geogebra-serif, serif" font-size="14px" font-style="normal" font-weight="bold" text-decoration="normal" x="504" y="463" text-anchor="start" dominant-baseline="alphabetic" stroke-opacity="1" stroke-linejoin="bevel" stroke-miterlimit="10" stroke-width="4.666666666666667">0.2</text><text fill="rgb(0,0,0)" stroke="none" font-family="geogebra-serif, serif" font-size="14px" font-style="normal" font-weight="bold" text-decoration="normal" x="504" y="463" text-anchor="start" dominant-baseline="alphabetic" fill-opacity="1">0.2</text><text fill="none" stroke="rgb(255,255,255)" font-family="geogebra-serif, serif" font-size="14px" font-style="normal" font-weight="bold" text-decoration="normal" x="561" y="463" text-anchor="start" dominant-baseline="alphabetic" stroke-opacity="1" stroke-linejoin="bevel" stroke-miterlimit="10" stroke-width="4.666666666666667">0.4</text><text fill="rgb(0,0,0)" stroke="none" font-family="geogebra-serif, serif" font-size="14px" font-style="normal" font-weight="bold" text-decoration="normal" x="561" y="463" text-anchor="start" dominant-baseline="alphabetic" fill-opacity="1">0.4</text><text fill="none" stroke="rgb(255,255,255)" font-family="geogebra-serif, serif" font-size="14px" font-style="normal" font-weight="bold" text-decoration="normal" x="617" y="463" text-anchor="start" dominant-baseline="alphabetic" stroke-opacity="1" stroke-linejoin="bevel" stroke-miterlimit="10" stroke-width="4.666666666666667">0.6</text><text fill="rgb(0,0,0)" stroke="none" font-family="geogebra-serif, serif" font-size="14px" font-style="normal" font-weight="bold" text-decoration="normal" x="617" y="463" text-anchor="start" dominant-baseline="alphabetic" fill-opacity="1">0.6</text><text fill="none" stroke="rgb(255,255,255)" font-family="geogebra-serif, serif" font-size="14px" font-style="normal" font-weight="bold" text-decoration="normal" x="674" y="463" text-anchor="start" dominant-baseline="alphabetic" stroke-opacity="1" stroke-linejoin="bevel" stroke-miterlimit="10" stroke-width="4.666666666666667">0.8</text><text fill="rgb(0,0,0)" stroke="none" font-family="geogebra-serif, serif" font-size="14px" font-style="normal" font-weight="bold" text-decoration="normal" x="674" y="463" text-anchor="start" dominant-baseline="alphabetic" fill-opacity="1">0.8</text><text fill="none" stroke="rgb(255,255,255)" font-family="geogebra-serif, serif" font-size="14px" font-style="normal" font-weight="bold" text-decoration="normal" x="739" y="463" text-anchor="start" dominant-baseline="alphabetic" stroke-opacity="1" stroke-linejoin="bevel" stroke-miterlimit="10" stroke-width="4.666666666666667">1</text><text fill="rgb(0,0,0)" stroke="none" font-family="geogebra-serif, serif" font-size="14px" font-style="normal" font-weight="bold" text-decoration="normal" x="739" y="463" text-anchor="start" dominant-baseline="alphabetic" fill-opacity="1">1</text><text fill="none" stroke="rgb(255,255,255)" font-family="geogebra-serif, serif" font-size="14px" font-style="normal" font-weight="bold" text-decoration="normal" x="787" y="463" text-anchor="start" dominant-baseline="alphabetic" stroke-opacity="1" stroke-linejoin="bevel" stroke-miterlimit="10" stroke-width="4.666666666666667">1.2</text><text fill="rgb(0,0,0)" stroke="none" font-family="geogebra-serif, serif" font-size="14px" font-style="normal" font-weight="bold" text-decoration="normal" x="787" y="463" text-anchor="start" dominant-baseline="alphabetic" fill-opacity="1">1.2</text><text fill="none" stroke="rgb(255,255,255)" font-family="geogebra-serif, serif" font-size="14px" font-style="normal" font-weight="bold" text-decoration="normal" x="844" y="463" text-anchor="start" dominant-baseline="alphabetic" stroke-opacity="1" stroke-linejoin="bevel" stroke-miterlimit="10" stroke-width="4.666666666666667">1.4</text><text fill="rgb(0,0,0)" stroke="none" font-family="geogebra-serif, serif" font-size="14px" font-style="normal" font-weight="bold" text-decoration="normal" x="844" y="463" text-anchor="start" dominant-baseline="alphabetic" fill-opacity="1">1.4</text><text fill="none" stroke="rgb(255,255,255)" font-family="geogebra-serif, serif" font-size="14px" font-style="normal" font-weight="bold" text-decoration="normal" x="900" y="463" text-anchor="start" dominant-baseline="alphabetic" stroke-opacity="1" stroke-linejoin="bevel" stroke-miterlimit="10" stroke-width="4.666666666666667">1.6</text><text fill="rgb(0,0,0)" stroke="none" font-family="geogebra-serif, serif" font-size="14px" font-style="normal" font-weight="bold" text-decoration="normal" x="900" y="463" text-anchor="start" dominant-baseline="alphabetic" fill-opacity="1">1.6</text><text fill="none" stroke="rgb(255,255,255)" font-family="geogebra-serif, serif" font-size="14px" font-style="normal" font-weight="bold" text-decoration="normal" x="424" y="903" text-anchor="start" dominant-baseline="alphabetic" stroke-opacity="1" stroke-linejoin="bevel" stroke-miterlimit="10" stroke-width="4.666666666666667">–1.6</text><text fill="rgb(0,0,0)" stroke="none" font-family="geogebra-serif, serif" font-size="14px" font-style="normal" font-weight="bold" text-decoration="normal" x="424" y="903" text-anchor="start" dominant-baseline="alphabetic" fill-opacity="1">–1.6</text><text fill="none" stroke="rgb(255,255,255)" font-family="geogebra-serif, serif" font-size="14px" font-style="normal" font-weight="bold" text-decoration="normal" x="424" y="847" text-anchor="start" dominant-baseline="alphabetic" stroke-opacity="1" stroke-linejoin="bevel" stroke-miterlimit="10" stroke-width="4.666666666666667">–1.4</text><text fill="rgb(0,0,0)" stroke="none" font-family="geogebra-serif, serif" font-size="14px" font-style="normal" font-weight="bold" text-decoration="normal" x="424" y="847" text-anchor="start" dominant-baseline="alphabetic" fill-opacity="1">–1.4</text><text fill="none" stroke="rgb(255,255,255)" font-family="geogebra-serif, serif" font-size="14px" font-style="normal" font-weight="bold" text-decoration="normal" x="424" y="790" text-anchor="start" dominant-baseline="alphabetic" stroke-opacity="1" stroke-linejoin="bevel" stroke-miterlimit="10" stroke-width="4.666666666666667">–1.2</text><text fill="rgb(0,0,0)" stroke="none" font-family="geogebra-serif, serif" font-size="14px" font-style="normal" font-weight="bold" text-decoration="normal" x="424" y="790" text-anchor="start" dominant-baseline="alphabetic" fill-opacity="1">–1.2</text><text fill="none" stroke="rgb(255,255,255)" font-family="geogebra-serif, serif" font-size="14px" font-style="normal" font-weight="bold" text-decoration="normal" x="436" y="734" text-anchor="start" dominant-baseline="alphabetic" stroke-opacity="1" stroke-linejoin="bevel" stroke-miterlimit="10" stroke-width="4.666666666666667">–1</text><text fill="rgb(0,0,0)" stroke="none" font-family="geogebra-serif, serif" font-size="14px" font-style="normal" font-weight="bold" text-decoration="normal" x="436" y="734" text-anchor="start" dominant-baseline="alphabetic" fill-opacity="1">–1</text><text fill="none" stroke="rgb(255,255,255)" font-family="geogebra-serif, serif" font-size="14px" font-style="normal" font-weight="bold" text-decoration="normal" x="424" y="677" text-anchor="start" dominant-baseline="alphabetic" stroke-opacity="1" stroke-linejoin="bevel" stroke-miterlimit="10" stroke-width="4.666666666666667">–0.8</text><text fill="rgb(0,0,0)" stroke="none" font-family="geogebra-serif, serif" font-size="14px" font-style="normal" font-weight="bold" text-decoration="normal" x="424" y="677" text-anchor="start" dominant-baseline="alphabetic" fill-opacity="1">–0.8</text><text fill="none" stroke="rgb(255,255,255)" font-family="geogebra-serif, serif" font-size="14px" font-style="normal" font-weight="bold" text-decoration="normal" x="424" y="621" text-anchor="start" dominant-baseline="alphabetic" stroke-opacity="1" stroke-linejoin="bevel" stroke-miterlimit="10" stroke-width="4.666666666666667">–0.6</text><text fill="rgb(0,0,0)" stroke="none" font-family="geogebra-serif, serif" font-size="14px" font-style="normal" font-weight="bold" text-decoration="normal" x="424" y="621" text-anchor="start" dominant-baseline="alphabetic" fill-opacity="1">–0.6</text><text fill="none" stroke="rgb(255,255,255)" font-family="geogebra-serif, serif" font-size="14px" font-style="normal" font-weight="bold" text-decoration="normal" x="424" y="564" text-anchor="start" dominant-baseline="alphabetic" stroke-opacity="1" stroke-linejoin="bevel" stroke-miterlimit="10" stroke-width="4.666666666666667">–0.4</text><text fill="rgb(0,0,0)" stroke="none" font-family="geogebra-serif, serif" font-size="14px" font-style="normal" font-weight="bold" text-decoration="normal" x="424" y="564" text-anchor="start" dominant-baseline="alphabetic" fill-opacity="1">–0.4</text><text fill="none" stroke="rgb(255,255,255)" font-family="geogebra-serif, serif" font-size="14px" font-style="normal" font-weight="bold" text-decoration="normal" x="424" y="507" text-anchor="start" dominant-baseline="alphabetic" stroke-opacity="1" stroke-linejoin="bevel" stroke-miterlimit="10" stroke-width="4.666666666666667">–0.2</text><text fill="rgb(0,0,0)" stroke="none" font-family="geogebra-serif, serif" font-size="14px" font-style="normal" font-weight="bold" text-decoration="normal" x="424" y="507" text-anchor="start" dominant-baseline="alphabetic" fill-opacity="1">–0.2</text><text fill="none" stroke="rgb(255,255,255)" font-family="geogebra-serif, serif" font-size="14px" font-style="normal" font-weight="bold" text-decoration="normal" x="431" y="394" text-anchor="start" dominant-baseline="alphabetic" stroke-opacity="1" stroke-linejoin="bevel" stroke-miterlimit="10" stroke-width="4.666666666666667">0.2</text><text fill="rgb(0,0,0)" stroke="none" font-family="geogebra-serif, serif" font-size="14px" font-style="normal" font-weight="bold" text-decoration="normal" x="431" y="394" text-anchor="start" dominant-baseline="alphabetic" fill-opacity="1">0.2</text><text fill="none" stroke="rgb(255,255,255)" font-family="geogebra-serif, serif" font-size="14px" font-style="normal" font-weight="bold" text-decoration="normal" x="431" y="338" text-anchor="start" dominant-baseline="alphabetic" stroke-opacity="1" stroke-linejoin="bevel" stroke-miterlimit="10" stroke-width="4.666666666666667">0.4</text><text fill="rgb(0,0,0)" stroke="none" font-family="geogebra-serif, serif" font-size="14px" font-style="normal" font-weight="bold" text-decoration="normal" x="431" y="338" text-anchor="start" dominant-baseline="alphabetic" fill-opacity="1">0.4</text><text fill="none" stroke="rgb(255,255,255)" font-family="geogebra-serif, serif" font-size="14px" font-style="normal" font-weight="bold" text-decoration="normal" x="431" y="281" text-anchor="start" dominant-baseline="alphabetic" stroke-opacity="1" stroke-linejoin="bevel" stroke-miterlimit="10" stroke-width="4.666666666666667">0.6</text><text fill="rgb(0,0,0)" stroke="none" font-family="geogebra-serif, serif" font-size="14px" font-style="normal" font-weight="bold" text-decoration="normal" x="431" y="281" text-anchor="start" dominant-baseline="alphabetic" fill-opacity="1">0.6</text><text fill="none" stroke="rgb(255,255,255)" font-family="geogebra-serif, serif" font-size="14px" font-style="normal" font-weight="bold" text-decoration="normal" x="431" y="225" text-anchor="start" dominant-baseline="alphabetic" stroke-opacity="1" stroke-linejoin="bevel" stroke-miterlimit="10" stroke-width="4.666666666666667">0.8</text><text fill="rgb(0,0,0)" stroke="none" font-family="geogebra-serif, serif" font-size="14px" font-style="normal" font-weight="bold" text-decoration="normal" x="431" y="225" text-anchor="start" dominant-baseline="alphabetic" fill-opacity="1">0.8</text><text fill="none" stroke="rgb(255,255,255)" font-family="geogebra-serif, serif" font-size="14px" font-style="normal" font-weight="bold" text-decoration="normal" x="444" y="168" text-anchor="start" dominant-baseline="alphabetic" stroke-opacity="1" stroke-linejoin="bevel" stroke-miterlimit="10" stroke-width="4.666666666666667">1</text><text fill="rgb(0,0,0)" stroke="none" font-family="geogebra-serif, serif" font-size="14px" font-style="normal" font-weight="bold" text-decoration="normal" x="444" y="168" text-anchor="start" dominant-baseline="alphabetic" fill-opacity="1">1</text><text fill="none" stroke="rgb(255,255,255)" font-family="geogebra-serif, serif" font-size="14px" font-style="normal" font-weight="bold" text-decoration="normal" x="431" y="112" text-anchor="start" dominant-baseline="alphabetic" stroke-opacity="1" stroke-linejoin="bevel" stroke-miterlimit="10" stroke-width="4.666666666666667">1.2</text><text fill="rgb(0,0,0)" stroke="none" font-family="geogebra-serif, serif" font-size="14px" font-style="normal" font-weight="bold" text-decoration="normal" x="431" y="112" text-anchor="start" dominant-baseline="alphabetic" fill-opacity="1">1.2</text><text fill="none" stroke="rgb(255,255,255)" font-family="geogebra-serif, serif" font-size="14px" font-style="normal" font-weight="bold" text-decoration="normal" x="431" y="55" text-anchor="start" dominant-baseline="alphabetic" stroke-opacity="1" stroke-linejoin="bevel" stroke-miterlimit="10" stroke-width="4.666666666666667">1.4</text><text fill="rgb(0,0,0)" stroke="none" font-family="geogebra-serif, serif" font-size="14px" font-style="normal" font-weight="bold" text-decoration="normal" x="431" y="55" text-anchor="start" dominant-baseline="alphabetic" fill-opacity="1">1.4</text><text fill="none" stroke="rgb(255,255,255)" font-family="geogebra-serif, serif" font-size="14px" font-style="normal" font-weight="bold" text-decoration="normal" x="444" y="463" text-anchor="start" dominant-baseline="alphabetic" stroke-opacity="1" stroke-linejoin="bevel" stroke-miterlimit="10" stroke-width="4.666666666666667">0</text><text fill="rgb(0,0,0)" stroke="none" font-family="geogebra-serif, serif" font-size="14px" font-style="normal" font-weight="bold" text-decoration="normal" x="444" y="463" text-anchor="start" dominant-baseline="alphabetic" fill-opacity="1">0</text><path fill="none" stroke="rgb(0,0,0)" paint-order="fill stroke markers" d=" M 742.5355959482595 445.39708749354816 C 742.5355959482595 601.5712398714516 615.9314307540212 728.1754050656908 459.75727837611925 728.1754050656908 C 303.58312599821716 728.1754050656908 176.97896080397908 601.5712398714516 176.97896080397908 445.39708749354816 C 176.97896080397908 289.2229351156447 303.58312599821716 162.6187699214055 459.75727837611925 162.6187699214055 C 615.9314307540212 162.6187699214055 742.5355959482595 289.2229351156447 742.5355959482595 445.39708749354816 Z" stroke-opacity="0.6980392156862745" stroke-linecap="round" stroke-linejoin="round" stroke-miterlimit="10" stroke-width="2.5"/><text fill="none" stroke="rgb(255,255,255)" font-family="geogebra-sans-serif, sans-serif" font-size="18px" font-style="normal" font-weight="normal" text-decoration="normal" x="318" y="225" text-anchor="start" dominant-baseline="alphabetic" stroke-opacity="1" stroke-linecap="round" stroke-linejoin="bevel" stroke-miterlimit="10" stroke-width="4.666666666666667">c</text><text fill="rgb(0,0,0)" stroke="none" font-family="geogebra-sans-serif, sans-serif" font-size="18px" font-style="normal" font-weight="normal" text-decoration="normal" x="318" y="225" text-anchor="start" dominant-baseline="alphabetic" fill-opacity="1">c</text><path fill="rgb(0,100,0)" stroke="none" paint-order="stroke fill markers" d=" M 489.75727837611925 445.39708749354816 C 489.75727837611925 438.4234596655896 487.32781992591373 431.66767659089334 482.88656902466994 426.2911744273042 L 459.75727837611925 445.39708749354816 Z" fill-opacity="0.09803921568627451"/><path fill="none" stroke="rgb(0,100,0)" paint-order="fill stroke markers" d=" M 489.75727837611925 445.39708749354816 C 489.75727837611925 438.4234596655896 487.32781992591373 431.66767659089334 482.88656902466994 426.2911744273042 L 459.75727837611925 445.39708749354816 Z" stroke-opacity="0.6980392156862745" stroke-linecap="round" stroke-linejoin="round" stroke-miterlimit="10" stroke-width="2.5"/><text fill="none" stroke="rgb(255,255,255)" font-family="geogebra-sans-serif, sans-serif" font-size="18px" font-style="normal" font-weight="normal" text-decoration="normal" x="495" y="435" text-anchor="start" dominant-baseline="alphabetic" stroke-opacity="1" stroke-linecap="round" stroke-linejoin="bevel" stroke-miterlimit="10" stroke-width="4.666666666666667">α = 39.56°</text><text fill="rgb(0,100,0)" stroke="none" font-family="geogebra-sans-serif, sans-serif" font-size="18px" font-style="normal" font-weight="normal" text-decoration="normal" x="495" y="435" text-anchor="start" dominant-baseline="alphabetic" fill-opacity="1">α = 39.56°</text><path fill="none" stroke="rgb(0,0,0)" paint-order="fill stroke markers" d=" M 677.9328345291149 445.39708749354816 L 677.7726749172593 265.3058224084803" stroke-opacity="0.6980392156862745" stroke-linecap="round" stroke-linejoin="round" stroke-miterlimit="10" stroke-width="2.5"/><text fill="none" stroke="rgb(255,255,255)" font-family="geogebra-sans-serif, sans-serif" font-size="18px" font-style="normal" font-weight="normal" text-decoration="normal" x="693" y="355" text-anchor="start" dominant-baseline="alphabetic" stroke-opacity="1" stroke-linecap="round" stroke-linejoin="bevel" stroke-miterlimit="10" stroke-width="4.666666666666667">f</text><text fill="rgb(0,0,0)" stroke="none" font-family="geogebra-sans-serif, sans-serif" font-size="18px" font-style="normal" font-weight="normal" text-decoration="normal" x="693" y="355" text-anchor="start" dominant-baseline="alphabetic" fill-opacity="1">f</text><path fill="none" stroke="rgb(0,0,0)" paint-order="fill stroke markers" d=" M 459.75727837611925 445.39708749354816 L 664.6660768830807 276.13250647935183" stroke-opacity="0.6980392156862745" stroke-linecap="round" stroke-linejoin="round" stroke-miterlimit="10" stroke-width="2.5"/><path fill="rgb(0,0,0)" stroke="none" paint-order="stroke fill markers" fill-rule="evenodd" d=" M 677.7726749172593 265.3058224084803 L 667.3727479007986 279.4091559878965 L 661.9594058653628 272.85585697080717 Z" fill-opacity="0.6980392156862745"/><text fill="none" stroke="rgb(255,255,255)" font-family="geogebra-sans-serif, sans-serif" font-size="18px" font-style="normal" font-weight="normal" text-decoration="normal" x="566" y="352" text-anchor="start" dominant-baseline="alphabetic" stroke-opacity="1" stroke-linecap="round" stroke-linejoin="bevel" stroke-miterlimit="10" stroke-width="4.666666666666667">u</text><text fill="rgb(0,0,0)" stroke="none" font-family="geogebra-sans-serif, sans-serif" font-size="18px" font-style="normal" font-weight="normal" text-decoration="normal" x="566" y="352" text-anchor="start" dominant-baseline="alphabetic" fill-opacity="1">u</text><path fill="rgb(125,125,255)" stroke="none" paint-order="stroke fill markers" d=" M 464.75727837611925 445.39708749354816 C 464.75727837611925 448.1585112427021 462.5187021252732 450.39708749354816 459.75727837611925 450.39708749354816 C 456.9958546269653 450.39708749354816 454.75727837611925 448.1585112427021 454.75727837611925 445.39708749354816 C 454.75727837611925 442.6356637443942 456.9958546269653 440.39708749354816 459.75727837611925 440.39708749354816 C 462.5187021252732 440.39708749354816 464.75727837611925 442.6356637443942 464.75727837611925 445.39708749354816 Z" fill-opacity="1"/><path fill="none" stroke="rgb(0,0,0)" paint-order="fill stroke markers" d=" M 464.75727837611925 445.39708749354816 C 464.75727837611925 448.1585112427021 462.5187021252732 450.39708749354816 459.75727837611925 450.39708749354816 C 456.9958546269653 450.39708749354816 454.75727837611925 448.1585112427021 454.75727837611925 445.39708749354816 C 454.75727837611925 442.6356637443942 456.9958546269653 440.39708749354816 459.75727837611925 440.39708749354816 C 462.5187021252732 440.39708749354816 464.75727837611925 442.6356637443942 464.75727837611925 445.39708749354816 Z" stroke-opacity="1" stroke-linecap="round" stroke-linejoin="round" stroke-miterlimit="10"/><text fill="none" stroke="rgb(255,255,255)" font-family="geogebra-sans-serif, sans-serif" font-size="18px" font-style="normal" font-weight="normal" text-decoration="normal" x="464" y="435" text-anchor="start" dominant-baseline="alphabetic" stroke-opacity="1" stroke-linecap="round" stroke-linejoin="bevel" stroke-miterlimit="10" stroke-width="4.666666666666667">A</text><text fill="rgb(125,125,255)" stroke="none" font-family="geogebra-sans-serif, sans-serif" font-size="18px" font-style="normal" font-weight="normal" text-decoration="normal" x="464" y="435" text-anchor="start" dominant-baseline="alphabetic" fill-opacity="1">A</text><path fill="rgb(125,125,255)" stroke="none" paint-order="stroke fill markers" d=" M 682.7726749172593 265.3058224084803 C 682.7726749172593 268.06724615763426 680.5340986664133 270.3058224084803 677.7726749172593 270.3058224084803 C 675.0112511681053 270.3058224084803 672.7726749172593 268.06724615763426 672.7726749172593 265.3058224084803 C 672.7726749172593 262.54439865932636 675.0112511681053 260.3058224084803 677.7726749172593 260.3058224084803 C 680.5340986664133 260.3058224084803 682.7726749172593 262.54439865932636 682.7726749172593 265.3058224084803 Z" fill-opacity="1"/><path fill="none" stroke="rgb(0,0,0)" paint-order="fill stroke markers" d=" M 682.7726749172593 265.3058224084803 C 682.7726749172593 268.06724615763426 680.5340986664133 270.3058224084803 677.7726749172593 270.3058224084803 C 675.0112511681053 270.3058224084803 672.7726749172593 268.06724615763426 672.7726749172593 265.3058224084803 C 672.7726749172593 262.54439865932636 675.0112511681053 260.3058224084803 677.7726749172593 260.3058224084803 C 680.5340986664133 260.3058224084803 682.7726749172593 262.54439865932636 682.7726749172593 265.3058224084803 Z" stroke-opacity="1" stroke-linecap="round" stroke-linejoin="round" stroke-miterlimit="10"/><text fill="none" stroke="rgb(255,255,255)" font-family="geogebra-sans-serif, sans-serif" font-size="18px" font-style="normal" font-weight="normal" text-decoration="normal" x="682" y="255" text-anchor="start" dominant-baseline="alphabetic" stroke-opacity="1" stroke-linecap="round" stroke-linejoin="bevel" stroke-miterlimit="10" stroke-width="4.666666666666667">B</text><text fill="rgb(125,125,255)" stroke="none" font-family="geogebra-sans-serif, sans-serif" font-size="18px" font-style="normal" font-weight="normal" text-decoration="normal" x="682" y="255" text-anchor="start" dominant-baseline="alphabetic" fill-opacity="1">B</text><path fill="rgb(68,68,68)" stroke="none" paint-order="stroke fill markers" d=" M 746.5355959482595 445.39708749354816 C 746.5355959482595 447.6062264928713 744.7447349475826 449.39708749354816 742.5355959482595 449.39708749354816 C 740.3264569489363 449.39708749354816 738.5355959482595 447.6062264928713 738.5355959482595 445.39708749354816 C 738.5355959482595 443.187948494225 740.3264569489363 441.39708749354816 742.5355959482595 441.39708749354816 C 744.7447349475826 441.39708749354816 746.5355959482595 443.187948494225 746.5355959482595 445.39708749354816 Z" fill-opacity="1"/><path fill="none" stroke="rgb(0,0,0)" paint-order="fill stroke markers" d=" M 746.5355959482595 445.39708749354816 C 746.5355959482595 447.6062264928713 744.7447349475826 449.39708749354816 742.5355959482595 449.39708749354816 C 740.3264569489363 449.39708749354816 738.5355959482595 447.6062264928713 738.5355959482595 445.39708749354816 C 738.5355959482595 443.187948494225 740.3264569489363 441.39708749354816 742.5355959482595 441.39708749354816 C 744.7447349475826 441.39708749354816 746.5355959482595 443.187948494225 746.5355959482595 445.39708749354816 Z" stroke-opacity="1" stroke-linecap="round" stroke-linejoin="round" stroke-miterlimit="10"/><text fill="none" stroke="rgb(255,255,255)" font-family="geogebra-sans-serif, sans-serif" font-size="18px" font-style="normal" font-weight="normal" text-decoration="normal" x="747" y="437" text-anchor="start" dominant-baseline="alphabetic" stroke-opacity="1" stroke-linecap="round" stroke-linejoin="bevel" stroke-miterlimit="10" stroke-width="4.666666666666667">C</text><text fill="rgb(68,68,68)" stroke="none" font-family="geogebra-sans-serif, sans-serif" font-size="18px" font-style="normal" font-weight="normal" text-decoration="normal" x="747" y="437" text-anchor="start" dominant-baseline="alphabetic" fill-opacity="1">C</text><path fill="rgb(125,125,255)" stroke="none" paint-order="stroke fill markers" d=" M 682.9328345291149 445.39708749354816 C 682.9328345291149 448.1585112427021 680.6942582782689 450.39708749354816 677.9328345291149 450.39708749354816 C 675.1714107799609 450.39708749354816 672.9328345291149 448.1585112427021 672.9328345291149 445.39708749354816 C 672.9328345291149 442.6356637443942 675.1714107799609 440.39708749354816 677.9328345291149 440.39708749354816 C 680.6942582782689 440.39708749354816 682.9328345291149 442.6356637443942 682.9328345291149 445.39708749354816 Z" fill-opacity="1"/><path fill="none" stroke="rgb(0,0,0)" paint-order="fill stroke markers" d=" M 682.9328345291149 445.39708749354816 C 682.9328345291149 448.1585112427021 680.6942582782689 450.39708749354816 677.9328345291149 450.39708749354816 C 675.1714107799609 450.39708749354816 672.9328345291149 448.1585112427021 672.9328345291149 445.39708749354816 C 672.9328345291149 442.6356637443942 675.1714107799609 440.39708749354816 677.9328345291149 440.39708749354816 C 680.6942582782689 440.39708749354816 682.9328345291149 442.6356637443942 682.9328345291149 445.39708749354816 Z" stroke-opacity="1" stroke-linecap="round" stroke-linejoin="round" stroke-miterlimit="10"/><text fill="none" stroke="rgb(255,255,255)" font-family="geogebra-sans-serif, sans-serif" font-size="18px" font-style="normal" font-weight="normal" text-decoration="normal" x="682" y="435" text-anchor="start" dominant-baseline="alphabetic" stroke-opacity="1" stroke-linecap="round" stroke-linejoin="bevel" stroke-miterlimit="10" stroke-width="4.666666666666667">D</text><text fill="rgb(125,125,255)" stroke="none" font-family="geogebra-sans-serif, sans-serif" font-size="18px" font-style="normal" font-weight="normal" text-decoration="normal" x="682" y="435" text-anchor="start" dominant-baseline="alphabetic" fill-opacity="1">D</text><g transform="scale(21,21)"><g transform="translate(33,12.802932404761904)"><path fill="rgb(0,0,0)" stroke="none" paint-order="stroke fill markers" d=" M 0.222 -0.218 L 0.178 -0.218 Q 0.163 -0.162 0.163 -0.125 Q 0.163 -0.028 0.261 -0.028 Q 0.396 -0.028 0.47100000000000003 -0.107 Q 0.481 -0.11800000000000001 0.486 -0.11800000000000001 Q 0.493 -0.11800000000000001 0.502 -0.108 Q 0.511 -0.098 0.511 -0.092 Q 0.511 -0.081 0.482 -0.0565 Q 0.453 -0.032 0.41300000000000003 -0.016 Q 0.35000000000000003 0.008 0.258 0.008 Q 0.159 0.008 0.10400000000000001 -0.039 Q 0.049 -0.08600000000000001 0.049 -0.17200000000000001 Q 0.049 -0.29 0.1365 -0.371 Q 0.224 -0.452 0.358 -0.452 Q 0.42 -0.452 0.4575 -0.4255 Q 0.495 -0.399 0.495 -0.356 Q 0.495 -0.272 0.396 -0.23800000000000002 Q 0.336 -0.218 0.222 -0.218 M 0.187 -0.254 Q 0.216 -0.254 0.232 -0.254 Q 0.248 -0.254 0.278 -0.256 Q 0.308 -0.258 0.326 -0.2615 Q 0.34400000000000003 -0.265 0.367 -0.2725 Q 0.39 -0.28 0.403 -0.2905 Q 0.41600000000000004 -0.301 0.4255 -0.3175 Q 0.435 -0.334 0.435 -0.355 Q 0.435 -0.386 0.41200000000000003 -0.401 Q 0.389 -0.41600000000000004 0.358 -0.41600000000000004 Q 0.292 -0.41600000000000004 0.246 -0.37 Q 0.20600000000000002 -0.333 0.187 -0.254 Z"/></g><g transform="translate(33.553609,12.390040404761905) scale(0.7,0.7)"><path fill="rgb(0,0,0)" stroke="none" paint-order="stroke fill markers" d=" M 0.334 -0.646 Q 0.334 -0.62 0.312 -0.5985 Q 0.29 -0.577 0.263 -0.577 Q 0.242 -0.577 0.228 -0.5905 Q 0.214 -0.604 0.214 -0.625 Q 0.214 -0.651 0.23550000000000001 -0.6725 Q 0.257 -0.6940000000000001 0.28500000000000003 -0.6940000000000001 Q 0.306 -0.6940000000000001 0.32 -0.68 Q 0.334 -0.666 0.334 -0.646 M 0.359 -0.148 Q 0.359 -0.132 0.343 -0.0975 Q 0.327 -0.063 0.289 -0.0275 Q 0.251 0.008 0.20400000000000001 0.008 Q 0.157 0.008 0.1235 -0.0175 Q 0.09 -0.043000000000000003 0.09 -0.082 Q 0.09 -0.095 0.098 -0.116 L 0.165 -0.289 Q 0.198 -0.372 0.198 -0.394 Q 0.198 -0.41600000000000004 0.182 -0.41600000000000004 Q 0.168 -0.41600000000000004 0.1525 -0.40850000000000003 Q 0.137 -0.401 0.115 -0.372 Q 0.093 -0.343 0.079 -0.295 Q 0.075 -0.28200000000000003 0.056 -0.28200000000000003 Q 0.032 -0.28200000000000003 0.032 -0.296 Q 0.032 -0.312 0.048 -0.34650000000000003 Q 0.064 -0.381 0.10200000000000001 -0.4165 Q 0.14 -0.452 0.187 -0.452 Q 0.234 -0.452 0.2675 -0.4265 Q 0.301 -0.401 0.301 -0.362 Q 0.301 -0.34900000000000003 0.293 -0.328 L 0.226 -0.155 Q 0.193 -0.07200000000000001 0.193 -0.05 Q 0.193 -0.028 0.209 -0.028 Q 0.223 -0.028 0.23850000000000002 -0.035500000000000004 Q 0.254 -0.043000000000000003 0.276 -0.07200000000000001 Q 0.298 -0.101 0.312 -0.149 Q 0.316 -0.162 0.335 -0.162 Q 0.359 -0.162 0.359 -0.148 Z"/></g><g transform="translate(33.8369662,12.390040404761905) scale(0.7,0.7)"><path fill="rgb(0,0,0)" stroke="none" paint-order="stroke fill markers" d=" M 0.584 -0.164 Q 0.584 -0.028 0.611 -0.028 Q 0.615 -0.028 0.622 -0.029500000000000002 Q 0.629 -0.031 0.641 -0.039 Q 0.653 -0.047 0.658 -0.06 Q 0.661 -0.069 0.6655 -0.07100000000000001 Q 0.67 -0.073 0.681 -0.073 Q 0.704 -0.073 0.704 -0.059000000000000004 Q 0.704 -0.039 0.676 -0.0155 Q 0.648 0.008 0.604 0.008 Q 0.561 0.008 0.53 -0.0145 Q 0.499 -0.037 0.484 -0.07100000000000001 Q 0.374 0.008 0.253 0.008 Q 0.158 0.008 0.10200000000000001 -0.0375 Q 0.046 -0.083 0.046 -0.165 Q 0.046 -0.215 0.067 -0.2645 Q 0.088 -0.314 0.126 -0.3565 Q 0.164 -0.399 0.2255 -0.4255 Q 0.28700000000000003 -0.452 0.36 -0.452 Q 0.462 -0.452 0.524 -0.389 Q 0.549 -0.364 0.562 -0.332 Q 0.5750000000000001 -0.3 0.577 -0.2805 Q 0.579 -0.261 0.58 -0.228 Q 0.626 -0.293 0.651 -0.381 Q 0.655 -0.396 0.6585 -0.399 Q 0.662 -0.402 0.676 -0.402 Q 0.7000000000000001 -0.402 0.7000000000000001 -0.388 Q 0.7000000000000001 -0.371 0.6715 -0.3015 Q 0.643 -0.232 0.584 -0.164 M 0.258 -0.028 Q 0.319 -0.028 0.386 -0.057 Q 0.40900000000000003 -0.067 0.4405 -0.08700000000000001 Q 0.47200000000000003 -0.107 0.47200000000000003 -0.115 Q 0.47200000000000003 -0.129 0.46950000000000003 -0.1645 Q 0.467 -0.2 0.467 -0.20800000000000002 Q 0.465 -0.253 0.461 -0.28300000000000003 Q 0.457 -0.313 0.4465 -0.34700000000000003 Q 0.436 -0.381 0.41400000000000003 -0.3985 Q 0.392 -0.41600000000000004 0.359 -0.41600000000000004 Q 0.318 -0.41600000000000004 0.2775 -0.392 Q 0.23700000000000002 -0.368 0.214 -0.323 Q 0.193 -0.28300000000000003 0.177 -0.2165 Q 0.161 -0.15 0.161 -0.121 Q 0.161 -0.074 0.1875 -0.051000000000000004 Q 0.214 -0.028 0.258 -0.028 Z"/></g><g transform="translate(34.671005834920635,12.802932404761904)"><path fill="rgb(0,0,0)" stroke="none" paint-order="stroke fill markers" d=" M 0.788 -0.332 L 0.105 -0.332 Q 0.064 -0.332 0.064 -0.362 Q 0.064 -0.393 0.11 -0.393 L 0.783 -0.393 Q 0.8290000000000001 -0.393 0.8290000000000001 -0.362 Q 0.8290000000000001 -0.332 0.788 -0.332 M 0.783 -0.108 L 0.11 -0.108 Q 0.064 -0.108 0.064 -0.139 Q 0.064 -0.169 0.105 -0.169 L 0.788 -0.169 Q 0.8290000000000001 -0.169 0.8290000000000001 -0.139 Q 0.8290000000000001 -0.108 0.783 -0.108 Z"/></g><g transform="translate(36.17655844603175,12.802932404761904)"><path fill="rgb(0,0,0)" stroke="none" paint-order="stroke fill markers" d=" M 0.431 -0.396 Q 0.404 -0.41600000000000004 0.36 -0.41600000000000004 Q 0.268 -0.41600000000000004 0.217 -0.33 Q 0.196 -0.294 0.1785 -0.223 Q 0.161 -0.152 0.161 -0.121 Q 0.161 -0.028 0.26 -0.028 Q 0.396 -0.028 0.47100000000000003 -0.107 Q 0.481 -0.11800000000000001 0.486 -0.11800000000000001 Q 0.493 -0.11800000000000001 0.502 -0.108 Q 0.511 -0.098 0.511 -0.092 Q 0.511 -0.081 0.482 -0.0565 Q 0.453 -0.032 0.41300000000000003 -0.016 Q 0.35000000000000003 0.008 0.258 0.008 Q 0.149 0.008 0.0975 -0.041 Q 0.046 -0.09 0.046 -0.165 Q 0.046 -0.273 0.132 -0.3625 Q 0.218 -0.452 0.359 -0.452 Q 0.424 -0.452 0.4615 -0.426 Q 0.499 -0.4 0.499 -0.359 Q 0.499 -0.328 0.47850000000000004 -0.305 Q 0.458 -0.28200000000000003 0.427 -0.28200000000000003 Q 0.4 -0.28200000000000003 0.3885 -0.297 Q 0.377 -0.312 0.377 -0.328 Q 0.377 -0.334 0.3785 -0.3435 Q 0.38 -0.353 0.3935 -0.371 Q 0.40700000000000003 -0.389 0.431 -0.396 Z"/></g><g transform="translate(36.68998144603175,12.802932404761904)"><path fill="rgb(0,0,0)" stroke="none" paint-order="stroke fill markers" d=" M 0.5690000000000001 -0.279 Q 0.5690000000000001 -0.23 0.5485 -0.1805 Q 0.528 -0.131 0.49 -0.0885 Q 0.452 -0.046 0.3905 -0.019 Q 0.329 0.008 0.254 0.008 Q 0.156 0.008 0.101 -0.038 Q 0.046 -0.084 0.046 -0.165 Q 0.046 -0.214 0.0665 -0.2635 Q 0.08700000000000001 -0.313 0.125 -0.3555 Q 0.163 -0.398 0.2245 -0.425 Q 0.28600000000000003 -0.452 0.361 -0.452 Q 0.459 -0.452 0.514 -0.406 Q 0.5690000000000001 -0.36 0.5690000000000001 -0.279 M 0.189 -0.049 Q 0.189 -0.049 0.203 -0.0385 Q 0.217 -0.028 0.256 -0.028 Q 0.295 -0.028 0.3335 -0.049 Q 0.372 -0.07 0.398 -0.115 Q 0.419 -0.152 0.4365 -0.2225 Q 0.454 -0.293 0.454 -0.323 Q 0.454 -0.374 0.426 -0.395 Q 0.398 -0.41600000000000004 0.359 -0.41600000000000004 Q 0.32 -0.41600000000000004 0.28150000000000003 -0.395 Q 0.243 -0.374 0.217 -0.329 Q 0.196 -0.292 0.1785 -0.2215 Q 0.161 -0.151 0.161 -0.121 Q 0.161 -0.07 0.189 -0.049 Z"/></g><g transform="translate(37.27470044603175,12.802932404761904)"><path fill="rgb(0,0,0)" stroke="none" paint-order="stroke fill markers" d=" M 0.41400000000000003 -0.394 Q 0.384 -0.41600000000000004 0.331 -0.41600000000000004 Q 0.292 -0.41600000000000004 0.2665 -0.405 Q 0.241 -0.394 0.2325 -0.3775 Q 0.224 -0.361 0.2215 -0.353 Q 0.219 -0.34500000000000003 0.219 -0.339 Q 0.219 -0.321 0.233 -0.3105 Q 0.247 -0.3 0.2625 -0.2955 Q 0.278 -0.291 0.313 -0.28500000000000003 Q 0.385 -0.273 0.417 -0.245 Q 0.457 -0.21 0.457 -0.164 Q 0.457 -0.159 0.4555 -0.1505 Q 0.454 -0.14200000000000002 0.4485 -0.11950000000000001 Q 0.443 -0.097 0.428 -0.077 Q 0.41300000000000003 -0.057 0.39 -0.0365 Q 0.367 -0.016 0.325 -0.004 Q 0.28300000000000003 0.008 0.229 0.008 Q 0.15 0.008 0.10350000000000001 -0.0175 Q 0.057 -0.043000000000000003 0.057 -0.091 Q 0.057 -0.126 0.079 -0.1475 Q 0.101 -0.169 0.129 -0.169 Q 0.148 -0.169 0.163 -0.158 Q 0.178 -0.147 0.178 -0.123 Q 0.178 -0.1 0.163 -0.0805 Q 0.148 -0.061 0.123 -0.054 Q 0.159 -0.028 0.231 -0.028 Q 0.28200000000000003 -0.028 0.316 -0.0415 Q 0.35000000000000003 -0.055 0.362 -0.075 Q 0.374 -0.095 0.377 -0.1055 Q 0.38 -0.116 0.38 -0.123 Q 0.38 -0.169 0.29 -0.184 Q 0.234 -0.195 0.2155 -0.2005 Q 0.197 -0.20600000000000002 0.177 -0.222 Q 0.14100000000000001 -0.251 0.14100000000000001 -0.298 Q 0.14100000000000001 -0.322 0.1565 -0.357 Q 0.17200000000000001 -0.392 0.202 -0.41500000000000004 Q 0.251 -0.452 0.333 -0.452 Q 0.4 -0.452 0.438 -0.428 Q 0.47600000000000003 -0.404 0.47600000000000003 -0.364 Q 0.47600000000000003 -0.331 0.4565 -0.3135 Q 0.437 -0.296 0.41500000000000004 -0.296 Q 0.398 -0.296 0.385 -0.307 Q 0.372 -0.318 0.372 -0.337 Q 0.372 -0.35100000000000003 0.382 -0.368 Q 0.392 -0.385 0.41400000000000003 -0.394 Z"/></g><g transform="translate(37.80595044603175,12.802932404761904)"><path fill="rgb(0,0,0)" stroke="none" paint-order="stroke fill markers" d=" M 0.379 0.225 L 0.38 0.228 Q 0.382 0.232 0.382 0.23500000000000001 Q 0.382 0.249 0.364 0.249 Q 0.34500000000000003 0.249 0.2885 0.1965 Q 0.232 0.14400000000000002 0.188 0.067 Q 0.108 -0.074 0.108 -0.251 Q 0.108 -0.518 0.28700000000000003 -0.6960000000000001 Q 0.34400000000000003 -0.75 0.364 -0.75 Q 0.382 -0.75 0.382 -0.736 Q 0.382 -0.731 0.366 -0.715 Q 0.20500000000000002 -0.553 0.20500000000000002 -0.25 Q 0.20500000000000002 -0.106 0.243 0.009000000000000001 Q 0.28500000000000003 0.138 0.379 0.225 Z"/></g><g transform="translate(38.25317044603175,12.802932404761904)"><path fill="rgb(0,0,0)" stroke="none" paint-order="stroke fill markers" d=" M 0.584 -0.164 Q 0.584 -0.028 0.611 -0.028 Q 0.615 -0.028 0.622 -0.029500000000000002 Q 0.629 -0.031 0.641 -0.039 Q 0.653 -0.047 0.658 -0.06 Q 0.661 -0.069 0.6655 -0.07100000000000001 Q 0.67 -0.073 0.681 -0.073 Q 0.704 -0.073 0.704 -0.059000000000000004 Q 0.704 -0.039 0.676 -0.0155 Q 0.648 0.008 0.604 0.008 Q 0.561 0.008 0.53 -0.0145 Q 0.499 -0.037 0.484 -0.07100000000000001 Q 0.374 0.008 0.253 0.008 Q 0.158 0.008 0.10200000000000001 -0.0375 Q 0.046 -0.083 0.046 -0.165 Q 0.046 -0.215 0.067 -0.2645 Q 0.088 -0.314 0.126 -0.3565 Q 0.164 -0.399 0.2255 -0.4255 Q 0.28700000000000003 -0.452 0.36 -0.452 Q 0.462 -0.452 0.524 -0.389 Q 0.549 -0.364 0.562 -0.332 Q 0.5750000000000001 -0.3 0.577 -0.2805 Q 0.579 -0.261 0.58 -0.228 Q 0.626 -0.293 0.651 -0.381 Q 0.655 -0.396 0.6585 -0.399 Q 0.662 -0.402 0.676 -0.402 Q 0.7000000000000001 -0.402 0.7000000000000001 -0.388 Q 0.7000000000000001 -0.371 0.6715 -0.3015 Q 0.643 -0.232 0.584 -0.164 M 0.258 -0.028 Q 0.319 -0.028 0.386 -0.057 Q 0.40900000000000003 -0.067 0.4405 -0.08700000000000001 Q 0.47200000000000003 -0.107 0.47200000000000003 -0.115 Q 0.47200000000000003 -0.129 0.46950000000000003 -0.1645 Q 0.467 -0.2 0.467 -0.20800000000000002 Q 0.465 -0.253 0.461 -0.28300000000000003 Q 0.457 -0.313 0.4465 -0.34700000000000003 Q 0.436 -0.381 0.41400000000000003 -0.3985 Q 0.392 -0.41600000000000004 0.359 -0.41600000000000004 Q 0.318 -0.41600000000000004 0.2775 -0.392 Q 0.23700000000000002 -0.368 0.214 -0.323 Q 0.193 -0.28300000000000003 0.177 -0.2165 Q 0.161 -0.15 0.161 -0.121 Q 0.161 -0.074 0.1875 -0.051000000000000004 Q 0.214 -0.028 0.258 -0.028 Z"/></g><g transform="translate(39.01381544603175,12.802932404761904)"><path fill="rgb(0,0,0)" stroke="none" paint-order="stroke fill markers" d=" M 0.338 -0.25 Q 0.338 0.017 0.159 0.195 Q 0.10200000000000001 0.249 0.082 0.249 Q 0.064 0.249 0.064 0.23500000000000001 Q 0.064 0.23 0.08 0.214 Q 0.241 0.052000000000000005 0.241 -0.251 Q 0.241 -0.55 0.081 -0.713 Q 0.064 -0.729 0.064 -0.736 Q 0.064 -0.75 0.082 -0.75 Q 0.101 -0.75 0.1575 -0.6975 Q 0.214 -0.645 0.258 -0.5680000000000001 Q 0.338 -0.427 0.338 -0.25 Z"/></g><g transform="translate(39.68325833492064,12.802932404761904)"><path fill="rgb(0,0,0)" stroke="none" paint-order="stroke fill markers" d=" M 0.47700000000000004 -0.22 L 0.47700000000000004 0.09 Q 0.47700000000000004 0.132 0.446 0.132 Q 0.41600000000000004 0.132 0.41600000000000004 0.09 L 0.41600000000000004 -0.22 L 0.107 -0.22 Q 0.064 -0.22 0.064 -0.25 Q 0.064 -0.281 0.107 -0.281 L 0.41600000000000004 -0.281 L 0.41600000000000004 -0.591 Q 0.41600000000000004 -0.633 0.447 -0.633 Q 0.47700000000000004 -0.633 0.47700000000000004 -0.591 L 0.47700000000000004 -0.281 L 0.786 -0.281 Q 0.8290000000000001 -0.281 0.8290000000000001 -0.25 Q 0.8290000000000001 -0.22 0.786 -0.22 L 0.47700000000000004 -0.22 Z"/></g><g transform="translate(41.13325522380953,12.802932404761904)"><path fill="rgb(0,0,0)" stroke="none" paint-order="stroke fill markers" d=" M 0.334 -0.646 Q 0.334 -0.62 0.312 -0.5985 Q 0.29 -0.577 0.263 -0.577 Q 0.242 -0.577 0.228 -0.5905 Q 0.214 -0.604 0.214 -0.625 Q 0.214 -0.651 0.23550000000000001 -0.6725 Q 0.257 -0.6940000000000001 0.28500000000000003 -0.6940000000000001 Q 0.306 -0.6940000000000001 0.32 -0.68 Q 0.334 -0.666 0.334 -0.646 M 0.359 -0.148 Q 0.359 -0.132 0.343 -0.0975 Q 0.327 -0.063 0.289 -0.0275 Q 0.251 0.008 0.20400000000000001 0.008 Q 0.157 0.008 0.1235 -0.0175 Q 0.09 -0.043000000000000003 0.09 -0.082 Q 0.09 -0.095 0.098 -0.116 L 0.165 -0.289 Q 0.198 -0.372 0.198 -0.394 Q 0.198 -0.41600000000000004 0.182 -0.41600000000000004 Q 0.168 -0.41600000000000004 0.1525 -0.40850000000000003 Q 0.137 -0.401 0.115 -0.372 Q 0.093 -0.343 0.079 -0.295 Q 0.075 -0.28200000000000003 0.056 -0.28200000000000003 Q 0.032 -0.28200000000000003 0.032 -0.296 Q 0.032 -0.312 0.048 -0.34650000000000003 Q 0.064 -0.381 0.10200000000000001 -0.4165 Q 0.14 -0.452 0.187 -0.452 Q 0.234 -0.452 0.2675 -0.4265 Q 0.301 -0.401 0.301 -0.362 Q 0.301 -0.34900000000000003 0.293 -0.328 L 0.226 -0.155 Q 0.193 -0.07200000000000001 0.193 -0.05 Q 0.193 -0.028 0.209 -0.028 Q 0.223 -0.028 0.23850000000000002 -0.035500000000000004 Q 0.254 -0.043000000000000003 0.276 -0.07200000000000001 Q 0.298 -0.101 0.312 -0.149 Q 0.316 -0.162 0.335 -0.162 Q 0.359 -0.162 0.359 -0.148 Z"/></g><g transform="translate(41.538051223809525,12.802932404761904)"><path fill="rgb(0,0,0)" stroke="none" paint-order="stroke fill markers" d=" M 0.41400000000000003 -0.394 Q 0.384 -0.41600000000000004 0.331 -0.41600000000000004 Q 0.292 -0.41600000000000004 0.2665 -0.405 Q 0.241 -0.394 0.2325 -0.3775 Q 0.224 -0.361 0.2215 -0.353 Q 0.219 -0.34500000000000003 0.219 -0.339 Q 0.219 -0.321 0.233 -0.3105 Q 0.247 -0.3 0.2625 -0.2955 Q 0.278 -0.291 0.313 -0.28500000000000003 Q 0.385 -0.273 0.417 -0.245 Q 0.457 -0.21 0.457 -0.164 Q 0.457 -0.159 0.4555 -0.1505 Q 0.454 -0.14200000000000002 0.4485 -0.11950000000000001 Q 0.443 -0.097 0.428 -0.077 Q 0.41300000000000003 -0.057 0.39 -0.0365 Q 0.367 -0.016 0.325 -0.004 Q 0.28300000000000003 0.008 0.229 0.008 Q 0.15 0.008 0.10350000000000001 -0.0175 Q 0.057 -0.043000000000000003 0.057 -0.091 Q 0.057 -0.126 0.079 -0.1475 Q 0.101 -0.169 0.129 -0.169 Q 0.148 -0.169 0.163 -0.158 Q 0.178 -0.147 0.178 -0.123 Q 0.178 -0.1 0.163 -0.0805 Q 0.148 -0.061 0.123 -0.054 Q 0.159 -0.028 0.231 -0.028 Q 0.28200000000000003 -0.028 0.316 -0.0415 Q 0.35000000000000003 -0.055 0.362 -0.075 Q 0.374 -0.095 0.377 -0.1055 Q 0.38 -0.116 0.38 -0.123 Q 0.38 -0.169 0.29 -0.184 Q 0.234 -0.195 0.2155 -0.2005 Q 0.197 -0.20600000000000002 0.177 -0.222 Q 0.14100000000000001 -0.251 0.14100000000000001 -0.298 Q 0.14100000000000001 -0.322 0.1565 -0.357 Q 0.17200000000000001 -0.392 0.202 -0.41500000000000004 Q 0.251 -0.452 0.333 -0.452 Q 0.4 -0.452 0.438 -0.428 Q 0.47600000000000003 -0.404 0.47600000000000003 -0.364 Q 0.47600000000000003 -0.331 0.4565 -0.3135 Q 0.437 -0.296 0.41500000000000004 -0.296 Q 0.398 -0.296 0.385 -0.307 Q 0.372 -0.318 0.372 -0.337 Q 0.372 -0.35100000000000003 0.382 -0.368 Q 0.392 -0.385 0.41400000000000003 -0.394 Z"/></g><g transform="translate(42.069301223809525,12.802932404761904)"><path fill="rgb(0,0,0)" stroke="none" paint-order="stroke fill markers" d=" M 0.334 -0.646 Q 0.334 -0.62 0.312 -0.5985 Q 0.29 -0.577 0.263 -0.577 Q 0.242 -0.577 0.228 -0.5905 Q 0.214 -0.604 0.214 -0.625 Q 0.214 -0.651 0.23550000000000001 -0.6725 Q 0.257 -0.6940000000000001 0.28500000000000003 -0.6940000000000001 Q 0.306 -0.6940000000000001 0.32 -0.68 Q 0.334 -0.666 0.334 -0.646 M 0.359 -0.148 Q 0.359 -0.132 0.343 -0.0975 Q 0.327 -0.063 0.289 -0.0275 Q 0.251 0.008 0.20400000000000001 0.008 Q 0.157 0.008 0.1235 -0.0175 Q 0.09 -0.043000000000000003 0.09 -0.082 Q 0.09 -0.095 0.098 -0.116 L 0.165 -0.289 Q 0.198 -0.372 0.198 -0.394 Q 0.198 -0.41600000000000004 0.182 -0.41600000000000004 Q 0.168 -0.41600000000000004 0.1525 -0.40850000000000003 Q 0.137 -0.401 0.115 -0.372 Q 0.093 -0.343 0.079 -0.295 Q 0.075 -0.28200000000000003 0.056 -0.28200000000000003 Q 0.032 -0.28200000000000003 0.032 -0.296 Q 0.032 -0.312 0.048 -0.34650000000000003 Q 0.064 -0.381 0.10200000000000001 -0.4165 Q 0.14 -0.452 0.187 -0.452 Q 0.234 -0.452 0.2675 -0.4265 Q 0.301 -0.401 0.301 -0.362 Q 0.301 -0.34900000000000003 0.293 -0.328 L 0.226 -0.155 Q 0.193 -0.07200000000000001 0.193 -0.05 Q 0.193 -0.028 0.209 -0.028 Q 0.223 -0.028 0.23850000000000002 -0.035500000000000004 Q 0.254 -0.043000000000000003 0.276 -0.07200000000000001 Q 0.298 -0.101 0.312 -0.149 Q 0.316 -0.162 0.335 -0.162 Q 0.359 -0.162 0.359 -0.148 Z"/></g><g transform="translate(42.47409722380952,12.802932404761904)"><path fill="rgb(0,0,0)" stroke="none" paint-order="stroke fill markers" d=" M 0.28 -0.376 Q 0.35100000000000003 -0.452 0.445 -0.452 Q 0.509 -0.452 0.5515 -0.4255 Q 0.594 -0.399 0.594 -0.336 Q 0.594 -0.281 0.532 -0.122 Q 0.512 -0.07200000000000001 0.512 -0.049 Q 0.512 -0.039 0.515 -0.034 Q 0.518 -0.029 0.521 -0.0285 Q 0.524 -0.028 0.529 -0.028 Q 0.538 -0.028 0.548 -0.032 Q 0.558 -0.036000000000000004 0.5735 -0.0465 Q 0.589 -0.057 0.6045 -0.0835 Q 0.62 -0.11 0.632 -0.149 Q 0.636 -0.162 0.655 -0.162 Q 0.679 -0.162 0.679 -0.148 Q 0.679 -0.138 0.669 -0.1145 Q 0.659 -0.091 0.641 -0.0625 Q 0.623 -0.034 0.5915 -0.013000000000000001 Q 0.56 0.008 0.523 0.008 Q 0.47800000000000004 0.008 0.444 -0.0165 Q 0.41000000000000003 -0.041 0.41000000000000003 -0.082 Q 0.41000000000000003 -0.099 0.424 -0.133 Q 0.487 -0.299 0.487 -0.357 Q 0.487 -0.41600000000000004 0.437 -0.41600000000000004 Q 0.384 -0.41600000000000004 0.334 -0.377 Q 0.312 -0.359 0.2925 -0.3325 Q 0.273 -0.306 0.272 -0.299 Q 0.271 -0.297 0.257 -0.241 Q 0.243 -0.185 0.241 -0.18 Q 0.227 -0.12 0.213 -0.068 Q 0.209 -0.053 0.20550000000000002 -0.043000000000000003 Q 0.202 -0.033 0.1945 -0.0195 Q 0.187 -0.006 0.17350000000000002 0.001 Q 0.16 0.008 0.14200000000000002 0.008 Q 0.12 0.008 0.1075 -0.0055 Q 0.095 -0.019 0.095 -0.036000000000000004 Q 0.095 -0.039 0.10300000000000001 -0.076 L 0.139 -0.216 Q 0.14400000000000002 -0.23800000000000002 0.161 -0.306 Q 0.17500000000000002 -0.362 0.17500000000000002 -0.379 Q 0.17500000000000002 -0.41600000000000004 0.152 -0.41600000000000004 Q 0.11 -0.41600000000000004 0.084 -0.316 Q 0.077 -0.28800000000000003 0.076 -0.28700000000000003 Q 0.07100000000000001 -0.28200000000000003 0.056 -0.28200000000000003 Q 0.032 -0.28200000000000003 0.032 -0.296 Q 0.032 -0.304 0.043000000000000003 -0.3365 Q 0.054 -0.369 0.07 -0.395 Q 0.105 -0.452 0.157 -0.452 Q 0.2 -0.452 0.23500000000000001 -0.432 Q 0.27 -0.41200000000000003 0.28 -0.376 Z"/></g><g transform="translate(43.18705822380952,12.802932404761904)"><path fill="rgb(0,0,0)" stroke="none" paint-order="stroke fill markers" d=" M 0.379 0.225 L 0.38 0.228 Q 0.382 0.232 0.382 0.23500000000000001 Q 0.382 0.249 0.364 0.249 Q 0.34500000000000003 0.249 0.2885 0.1965 Q 0.232 0.14400000000000002 0.188 0.067 Q 0.108 -0.074 0.108 -0.251 Q 0.108 -0.518 0.28700000000000003 -0.6960000000000001 Q 0.34400000000000003 -0.75 0.364 -0.75 Q 0.382 -0.75 0.382 -0.736 Q 0.382 -0.731 0.366 -0.715 Q 0.20500000000000002 -0.553 0.20500000000000002 -0.25 Q 0.20500000000000002 -0.106 0.243 0.009000000000000001 Q 0.28500000000000003 0.138 0.379 0.225 Z"/></g><g transform="translate(43.634278223809524,12.802932404761904)"><path fill="rgb(0,0,0)" stroke="none" paint-order="stroke fill markers" d=" M 0.584 -0.164 Q 0.584 -0.028 0.611 -0.028 Q 0.615 -0.028 0.622 -0.029500000000000002 Q 0.629 -0.031 0.641 -0.039 Q 0.653 -0.047 0.658 -0.06 Q 0.661 -0.069 0.6655 -0.07100000000000001 Q 0.67 -0.073 0.681 -0.073 Q 0.704 -0.073 0.704 -0.059000000000000004 Q 0.704 -0.039 0.676 -0.0155 Q 0.648 0.008 0.604 0.008 Q 0.561 0.008 0.53 -0.0145 Q 0.499 -0.037 0.484 -0.07100000000000001 Q 0.374 0.008 0.253 0.008 Q 0.158 0.008 0.10200000000000001 -0.0375 Q 0.046 -0.083 0.046 -0.165 Q 0.046 -0.215 0.067 -0.2645 Q 0.088 -0.314 0.126 -0.3565 Q 0.164 -0.399 0.2255 -0.4255 Q 0.28700000000000003 -0.452 0.36 -0.452 Q 0.462 -0.452 0.524 -0.389 Q 0.549 -0.364 0.562 -0.332 Q 0.5750000000000001 -0.3 0.577 -0.2805 Q 0.579 -0.261 0.58 -0.228 Q 0.626 -0.293 0.651 -0.381 Q 0.655 -0.396 0.6585 -0.399 Q 0.662 -0.402 0.676 -0.402 Q 0.7000000000000001 -0.402 0.7000000000000001 -0.388 Q 0.7000000000000001 -0.371 0.6715 -0.3015 Q 0.643 -0.232 0.584 -0.164 M 0.258 -0.028 Q 0.319 -0.028 0.386 -0.057 Q 0.40900000000000003 -0.067 0.4405 -0.08700000000000001 Q 0.47200000000000003 -0.107 0.47200000000000003 -0.115 Q 0.47200000000000003 -0.129 0.46950000000000003 -0.1645 Q 0.467 -0.2 0.467 -0.20800000000000002 Q 0.465 -0.253 0.461 -0.28300000000000003 Q 0.457 -0.313 0.4465 -0.34700000000000003 Q 0.436 -0.381 0.41400000000000003 -0.3985 Q 0.392 -0.41600000000000004 0.359 -0.41600000000000004 Q 0.318 -0.41600000000000004 0.2775 -0.392 Q 0.23700000000000002 -0.368 0.214 -0.323 Q 0.193 -0.28300000000000003 0.177 -0.2165 Q 0.161 -0.15 0.161 -0.121 Q 0.161 -0.074 0.1875 -0.051000000000000004 Q 0.214 -0.028 0.258 -0.028 Z"/></g><g transform="translate(44.39492322380952,12.802932404761904)"><path fill="rgb(0,0,0)" stroke="none" paint-order="stroke fill markers" d=" M 0.338 -0.25 Q 0.338 0.017 0.159 0.195 Q 0.10200000000000001 0.249 0.082 0.249 Q 0.064 0.249 0.064 0.23500000000000001 Q 0.064 0.23 0.08 0.214 Q 0.241 0.052000000000000005 0.241 -0.251 Q 0.241 -0.55 0.081 -0.713 Q 0.064 -0.729 0.064 -0.736 Q 0.064 -0.75 0.082 -0.75 Q 0.101 -0.75 0.1575 -0.6975 Q 0.214 -0.645 0.258 -0.5680000000000001 Q 0.338 -0.427 0.338 -0.25 Z"/></g></g></g></g></svg>